<?xml version="1.0" encoding="UTF-8"?>
<svg version="1.0" xmlns="http://www.w3.org/2000/svg" width="418" height="414">
  <metadata  xmlns:rdf="http://www.w3.org/1999/02/22-rdf-syntax-ns#">
	<rdf:RDF xmlns:dc="http://purl.org/dc/elements/1.1/">
      <rdf:Description rdf:about="https://commons.wikimedia.org/wiki/File:C_plus_plus.svg">
        <dc:title>C++ Francophonie</dc:title>
        <dc:description>Logo of C++ (programming language) for French-speaking community</dc:description>
        <dc:license>Public Domain</dc:license>
        <dc:format>image/svg+xml</dc:format>
        <dc:type rdf:resource="http://purl.org/dc/dcmitype/StillImage" />
      </rdf:Description>
    </rdf:RDF>
  </metadata>
  <g transform="translate(-241,-93)">
    <path fill="#84006b" d="M 638.91481,224.88296 C 636.73056,218.30389 634.19379,211.75925 631.33825,205.28589 L 620.29182,210.25377 C 626.21579,221.42287 631.24647,233.27565 635.2673,245.76572 L 595.51314,258.80292 C 608.27525,319.38611 585.2459,382.02543 533.51655,419.95903 L 563.33802,461.39709 C 638.43744,406.32609 667.79542,311.87285 638.91481,224.88296 z"/>
    <path fill="#ff0000" d="M 584.16888,458.45465 C 589.69324,454.32492 595.07623,449.86744 600.29356,445.12598 L 592.19888,436.05753 C 583.50504,445.19547 573.89096,453.68719 563.36431,461.40648 L 538.79489,427.27465 C 485.65218,458.24641 419.51187,455.49685 367.78249,417.56327 L 337.95152,458.99436 C 413.0509,514.06542 511.12453,513.05889 584.16888,458.45465 z"/>
    <path fill="#0094c6" d="M 347.16116,478.08118 C 352.75966,482.10794 358.62329,485.8977 364.70331,489.4407 L 370.74695,478.86821 C 359.44991,473.34665 348.4774,466.74206 337.95074,459.02277 L 362.52015,424.89095 C 316.91405,383.44934 299.06643,319.11069 318.82528,257.73286 L 270.56726,241.90062 C 241.8818,331.00741 273.13667,424.83858 347.16116,478.08118 z"/>
    <path fill="#ffd600" d="M 255.42825,256.6394 C 253.36395,263.25781 251.60489,270.05749 250.14522,276.98863 L 261.97506,279.52292 C 263.68694,266.97247 266.51963,254.39889 270.54046,241.90882 L 310.29461,254.94602 C 335.2512,198.36194 390.36108,161.34803 454.3021,161.34803 L 454.30797,110.13206 C 361.48001,110.13203 282.72294,169.12942 255.42825,256.6394 z"/>
    <path fill="#109c52" d="M 435.74135,100.15433 C 428.86706,100.21798 421.91626,100.63064 414.93412,101.37133 L 416.20173,113.5101 C 428.55678,111.27505 441.27999,110.10875 454.29165,110.10875 L 454.29165,152.298 C 515.32178,158.76873 567.22917,200.23152 586.98804,261.60935 L 635.2497,245.78838 C 606.56431,156.68156 526.6349,99.3128 435.74135,100.15433 z"/>
  </g>
  <g transform="translate(70,40) scale(3.5)">
    <path fill="#000000" d="M 54.341278,23.416146 L 54.341278,32.368497 C 51.4832,29.706659 48.429036,27.71725 45.178782,26.400263 C 41.956453,25.083386 38.524021,24.42492 34.881478,24.424862 C 27.708364,24.42492 22.216474,26.624477 18.405794,31.023543 C 14.595077,35.394688 12.689727,41.727171 12.68974,50.021015 C 12.689727,58.286899 14.595077,64.619382 18.405794,69.018487 C 22.216474,73.389594 27.708364,75.575141 34.881478,75.575137 C 38.524021,75.575141 41.956453,74.916676 45.178782,73.599736 C 48.429036,72.282811 51.4832,70.293402 54.341278,67.631502 L 54.341278,76.499792 C 51.371119,78.517225 48.218887,80.030298 44.884573,81.039015 C 41.578185,82.047725 38.075704,82.552085 34.37712,82.552085 C 24.878359,82.552085 17.397061,79.65203 11.933205,73.851913 C 6.4693217,68.023794 3.7373877,60.08017 3.7373917,50.021015 C 3.7373877,39.933903 6.4693217,31.990276 11.933205,26.190115 C 17.397061,20.362043 24.878359,17.447977 34.37712,17.447915 C 38.131745,17.447977 41.662244,17.952335 44.968631,18.960988 C 48.302948,19.941746 51.427159,21.426796 54.341278,23.416146"/>
    <text y="62.539062" x="25.666044" style="font-size:40px;fill:#000000;font-family:Bitstream Vera Sans">+</text>
    <text y="62.539062" x="57.233311" style="font-size:40px;fill:#000000;font-family:Bitstream Vera Sans">+</text>
  </g>
</svg>
