<?xml version="1.0" encoding="UTF-8"?>
<svg version="1.0" viewBox="0 0 418 414" xmlns="http://www.w3.org/2000/svg">
 <metadata xmlns:rdf="http://www.w3.org/1999/02/22-rdf-syntax-ns#">
  <rdf:RDF xmlns:dc="http://purl.org/dc/elements/1.1/">
   <rdf:Description rdf:about="https://commons.wikimedia.org/wiki/File:Cpp-Francophonie.svg">
    <dc:title>C++ Francophonie</dc:title>
    <dc:description>Logo of C++ (programming language) for French-speaking community C++FRUG</dc:description>
    <dc:license>Public Domain</dc:license>
    <dc:format>image/svg+xml</dc:format>
    <dc:type rdf:resource="http://purl.org/dc/dcmitype/StillImage"/>
   </rdf:Description>
  </rdf:RDF>
 </metadata>
 <circle cx="211" cy="209" r="170" fill="#fff" opacity=".6"/>
 <path d="m398 132c-2-7-5-13-8-20l-11 5c6 11 11 23 15 36l-40 13c13 61-10 123-62 161l30 41c75-55 104-150 76-237z" fill="#84006b"/>
 <path d="m343 365c6-4 11-9 16-13l-8-9c-9 9-18 18-29 25l-25-34c-53 31-119 28-171-10l-30 41c75 55 173 54 246-1z" fill="#f00"/>
 <path d="m106 385c6 4 11 8 18 11l6-11c-12-5-23-11-33-19l25-34c-46-42-64-106-44-167l-48-16c-29 89 3 183 77 236z" fill="#0094c6"/>
 <path d="m14 164c-2 7-4 13-5 20l12 3c2-13 5-25 9-38l40 13c24-57 79-94 143-94v-51c-93 0-171 59-199 147z" fill="#ffd600"/>
 <path d="m195 7c-7 0-14 0-21 1l1 12c12-2 25-3 38-3v42c61 6 113 48 133 109l48-15c-28-89-108-147-199-146z" fill="#109c52"/>
 <path d="m256 114v31c-10-9-21-16-32-21s-23-7-36-7c-25 2e-4 -44 8-58 23-13 15-20 37-20 66-5e-5 29 7 51 20 66s33 23 58 23c13 1e-5 25-2 36-7s22-12 32-21v31c-10 7-21 12-33 16s-24 5-37 5c-33 0-59-10-79-30-19-20-29-48-29-83-1.4e-5 -35 10-63 29-83s45-31 79-31c13 2.2e-4 25 2 37 5s23 9 33 16"/>
 <path d="m213 171v36h36v16h-36v36h-16v-36h-36v-16h36v-36h16z"/>
 <path d="m315 171v36h36v16h-36v36h-16v-36h-36v-16h36v-36h16z"/>
</svg>
