<?xml version="1.0" encoding="UTF-8" standalone="no"?>
<svg  version="1.0" xmlns="http://www.w3.org/2000/svg"
      width="418"
      height="414">
  <metadata  xmlns:rdf="http://www.w3.org/1999/02/22-rdf-syntax-ns#">
    <rdf:RDF xmlns:dc="http://purl.org/dc/elements/1.1/">
      <rdf:Description rdf:about="https://commons.wikimedia.org/wiki/File:Cpp-Francophonie.svg">
        <dc:title>C++ Francophonie</dc:title>
        <dc:description>Logo of C++ (programming language) for French-speaking community</dc:description>
        <dc:license>Public Domain</dc:license>
        <dc:format>image/svg+xml</dc:format>
        <dc:type rdf:resource="http://purl.org/dc/dcmitype/StillImage" />
      </rdf:Description>
    </rdf:RDF>
  </metadata>
  <path fill="#84006b" d="m 397.91481,131.88296 c -2.18425,-6.57907 -4.72102,-13.12371 -7.57656,-19.59707 l -11.04643,4.96788 c 5.92397,11.1691 10.95465,23.02188 14.97548,35.51195 l -39.75416,13.0372 c 12.76211,60.58319 -10.26724,123.22251 -61.99659,161.15611 l 29.82147,41.43806 c 75.09942,-55.071 104.4574,-149.52424 75.57679,-236.51413 z"/>
  <path fill="#ff0000" d="m 343.16888,365.45465 c 5.52436,-4.12973 10.90735,-8.58721 16.12468,-13.32867 l -8.09468,-9.06845 c -8.69384,9.13794 -18.30792,17.62966 -28.83457,25.34895 l -24.56942,-34.13183 c -53.14271,30.97176 -119.28302,28.2222 -171.0124,-9.71138 l -29.83097,41.43109 c 75.09938,55.07106 173.17301,54.06453 246.21736,-0.53971 z"/>
  <path fill="#0094c6" d="m 106.16116,385.08118 c 5.5985,4.02676 11.46213,7.81652 17.54215,11.35952 l 6.04364,-10.57249 C 118.44991,380.34665 107.4774,373.74206 96.95074,366.02277 l 24.56941,-34.13182 C 75.91405,290.44934 58.06643,226.11069 77.82528,164.73286 L 29.56726,148.90062 c -28.68546,89.10679 2.56941,182.93796 76.5939,236.18056 z"/>
  <path fill="#ffd600" d="m 14.42825,163.6394 c -2.0643,6.61841 -3.82336,13.41809 -5.28303,20.34923 l 11.82984,2.53429 c 1.71188,-12.55045 4.54457,-25.12403 8.5654,-37.6141 l 39.75415,13.0372 C 94.2512,105.36194 149.36108,68.34803 213.3021,68.34803 l 0.006,-51.21597 C 120.48014,17.13203 41.72307,76.12942 14.42838,163.6394 Z"/>
  <path fill="#109c52" d="m 194.74135,7.15433 c -6.87429,0.0636 -13.82509,0.47631 -20.80723,1.217 l 1.26761,12.13877 c 12.35505,-2.23505 25.07826,-3.40135 38.08992,-3.40135 l 0,42.18925 c 61.03013,6.47073 112.93752,47.93352 132.69639,109.31135 L 394.2497,152.78838 C 365.56431,63.68156 285.6349,6.3128 194.74135,7.15433 Z"/>
  <path fill="#000" d="m 256.19447,113.9565 0,31.33323 c -10.00327,-9.31643 -20.69284,-16.27937 -32.06873,-20.88882 -11.27815,-4.60907 -23.29167,-6.9137 -36.04057,-6.9139 -25.1059,2e-4 -44.32751,7.69865 -57.66489,23.09538 -13.33751,15.29901 -20.00624,37.4627 -20.00619,66.49115 -5e-5,28.9306 6.66868,51.09429 20.00619,66.49115 13.33738,15.29888 32.55899,22.94829 57.66489,22.94828 12.7489,1e-5 24.76242,-2.30461 36.04057,-6.9139 11.37589,-4.60924 22.06546,-11.57217 32.06873,-20.88882 l 0,31.03901 c -10.39555,7.06102 -21.42837,12.35677 -33.09846,15.88728 -11.57236,3.53049 -23.83105,5.29575 -36.77609,5.29575 -33.24566,0 -59.43021,-10.15019 -78.5537,-30.4506 -19.123594,-20.39842 -28.685363,-48.20111 -28.685349,-83.40815 -1.4e-5,-35.30489 9.561755,-63.10758 28.685349,-83.40815 19.12349,-20.39825 45.30804,-30.597479 78.5537,-30.597699 13.14119,2.2e-4 25.49793,1.76547 37.07029,5.29576 11.67011,3.432649 22.60485,8.630329 32.80426,15.593049"/>
  <path fill="#000" d="m 212.61827,171.11328 0,35.82031 35.68359,0 0,16.13282 -35.68359,0 0,35.82031 -16.26953,0 0,-35.82031 -35.68359,0 0,-16.13282 35.68359,0 0,-35.82031 16.26953,0 z"/>
  <path fill="#000" d="m 315.1037,171.11328 0,35.82031 35.68359,0 0,16.13282 -35.68359,0 0,35.82031 -16.26953,0 0,-35.82031 -35.6836,0 0,-16.13282 35.6836,0 0,-35.82031 16.26953,0 z"/>
</svg>
