<?xml version="1.0" encoding="UTF-8" standalone="no"?>
<svg xmlns="http://www.w3.org/2000/svg"
     version="1.0"
     width="1755pt"
     height="640pt">

<metadata  xmlns:rdf="http://www.w3.org/1999/02/22-rdf-syntax-ns#">
  <rdf:RDF xmlns:cc="http://creativecommons.org/ns#">
    <cc:Work rdf:about="">
      <cc:license         rdf:resource="http://creativecommons.org/licenses/by-sa/4.0/" />
      <cc:attributionName rdf:resource="AKP" />
    </cc:Work>
  </rdf:RDF>
</metadata>

<g style="font-size:40px;line-height:125%;font-family:sans-serif">
  <text x="470" y="1.8em">Ca y est !</text>
  <text x="460" y="2.8em">C++17 est</text>
  <text x="470" y="3.8em">enfin sorti</text>
  <text x="450" y="260">Trop top</text>
  <text x="1200" y="2.2em">Va falloir comprendre</text>
  <text x="1120" y="3.2em">100 nouvelles fonctionnalites qui</text>
  <text x="1150" y="4.2em">se rajoutent aux precedentes !</text>
  <text x="1276" y="338">Gloups</text>
</g>
  <path
     style="fill:#000000;stroke:none"
     d="m 1338.8883,1.9629975 c -79.9172,4.056861 -103.8127,7.590256 -167.2685,24.9954975 -17.7889,4.84206 -52.8355,20.676906 -67.9693,30.884491 -23.099,15.311379 -30.002,24.602898 -35.3123,47.504524 -2.6551,12.03972 -2.6551,16.35831 0.2656,23.68684 4.248,11.2545 14.8683,26.69676 25.223,37.16608 12.4787,12.17059 49.1185,37.16607 66.9073,45.2798 9.0272,4.18774 14.8685,7.85199 13.8064,8.76805 -2.9207,2.35561 -32.3917,12.95579 -47.2601,17.14353 -7.6996,2.22471 -24.692,5.62724 -37.9672,7.85198 -36.3743,6.01985 -33.4538,7.59026 13.5408,7.72111 47.5254,0.26173 75.4035,-3.00992 111.2467,-12.95576 l 14.8685,-4.05688 32.3916,7.98285 c 35.5776,8.76806 47.5253,10.20759 110.7157,13.87186 44.0739,2.35559 63.4558,2.48646 106.4676,0 31.3298,-1.70126 60.5353,-4.71119 91.3338,-9.42238 63.987,-9.68413 87.617,-15.04965 113.3709,-25.25725 37.1708,-14.65704 44.605,-20.93862 57.8801,-47.37365 14.8685,-29.44497 18.0545,-58.62819 7.9652,-73.02351 -10.3545,-14.787906 -33.7191,-33.763544 -59.2077,-48.289725 -34.2502,-19.237371 -87.6167,-36.904346 -126.646,-41.746407 -33.1882,-4.1877265 -92.6615,-9.8149865 -97.4404,-9.2915205 -1.0621,0.130867 -5.5758,-0.523466 -10.0893,-1.43953 -12.7444,-2.61733 -64.7833,-2.61733 -116.8224,0 z m 114.1675,3.925994 c 7.4338,0.654332 18.5854,1.570398 25.2229,1.962997 51.2425,3.4025285 101.6886,10.8619185 129.0357,19.2373725 22.8333,6.805058 53.3666,18.190441 62.3937,22.901635 37.9673,20.415172 67.1728,43.578548 73.8105,59.020784 7.4342,17.14351 -1.593,63.86285 -15.3992,80.74462 -1.5932,2.09386 -5.0447,6.54332 -7.6998,9.81498 -2.3896,3.27166 -10.3547,8.76806 -17.7887,12.43231 -16.1961,7.98287 -48.3222,18.71392 -59.4734,19.76085 -4.5135,0.52347 -8.2307,1.43953 -8.2307,2.22473 0,0.78521 -0.7964,1.04692 -1.5929,0.52347 -0.7965,-0.39261 -12.7444,1.30866 -26.5506,3.79512 -37.4363,6.6742 -91.8648,13.21751 -123.1945,14.78792 -15.3994,0.7852 -33.7191,1.83213 -41.1535,2.22474 -28.4088,1.70125 -58.1455,0.39259 -119.4774,-5.23468 -11.6822,-1.04693 -26.285,-2.87906 -32.126,-3.92598 -16.7269,-2.87906 -44.0741,-9.81499 -50.4462,-12.69406 -7.1685,-3.27165 -8.4961,-3.27165 -26.285,2.09387 -24.161,7.19765 -69.5624,13.74098 -94.7853,13.74098 -11.4168,0 -20.7094,-0.39261 -20.7094,-1.04694 0,-0.52346 3.9824,-1.70127 8.7616,-2.74819 27.347,-5.62726 61.0662,-16.09657 71.6865,-22.24729 7.1687,-4.3186 9.0271,-6.67419 5.0446,-6.67419 -8.7617,0 -67.4385,-36.11916 -82.3066,-50.51448 -11.417,-11.25452 -26.5506,-34.02528 -28.1436,-42.40073 -1.3276,-7.852 4.248,-29.444966 10.3545,-39.914276 4.2483,-7.328528 18.32,-19.368244 34.5157,-29.575832 13.2753,-8.375454 46.729,-21.592968 66.9075,-26.565895 8.4962,-2.093864 17.2579,-4.187727 19.3819,-4.84206 36.1087,-9.684119 56.5527,-12.039716 144.7003,-16.8817755 47.7911,-2.486464 74.3416,-2.486464 103.5474,0 z" />
  <path
     style="fill:#000000;stroke:none"
     d="m 534.72405,8.2831065 c -0.26596,0.198939 -4.3883,0.596818 -9.17551,0.895227 -36.56908,2.1883335 -62.76583,5.5703085 -73.13816,9.3501585 -10.37232,3.779851 -24.60101,13.726832 -36.17014,25.265326 -10.23933,10.344858 -11.43613,12.135313 -17.02125,28.647299 -2.3936,6.863411 -2.79253,9.946977 -2.12764,18.202977 0.66489,8.95227 4.78722,22.579626 8.90956,30.338276 7.04785,12.93107 13.43082,20.78918 23.4042,28.84624 6.64892,5.37135 25.53187,16.31304 34.04249,19.69502 2.65958,1.09416 4.9202,2.38728 4.9202,2.98409 0,5.17242 -28.85632,24.07169 -39.76055,26.06108 -1.86169,0.29842 -4.25533,0.99471 -5.05319,1.59151 -8.24467,4.77456 26.75101,2.47828 43.63927,-2.59467 4.1085,-0.78518 17.34538,-9.92325 21.33156,-15.22499 l 1.35502,-1.8342 21.16864,3.34189 c 7.97872,2.08886 12.10637,2.18728 43.09035,3.97773 32.0478,1.98938 36.17014,2.08886 47.07436,0.9947 18.48401,-1.691 52.26054,-12.03585 66.6222,-20.29184 8.11171,-4.67508 26.5957,-18.99872 26.5957,-20.59026 0,-0.49734 2.12764,-3.58091 4.65424,-6.86341 2.39362,-3.18303 5.18617,-7.75865 5.98403,-10.04644 0.93086,-2.38728 2.12765,-5.07296 2.79254,-5.96819 1.32981,-1.88993 2.12766,-6.26661 3.19149,-16.01464 0.53192,-5.47084 0.12486,-9.354816 -1.47082,-9.354816 -1.46277,0 -1.85363,3.983466 -1.98661,7.862766 0,8.45495 -1.32978,13.72684 -5.05319,21.68442 -7.04786,14.92045 -18.88294,26.85684 -36.17012,36.60488 -11.03722,6.2666 -41.75525,16.61145 -56.78181,19.19767 -7.84573,1.29311 -38.96268,1.29311 -52.12755,0 -5.45212,-0.59682 -13.29785,-1.09418 -17.28719,-1.09418 -11.83509,-0.0995 -43.50116,-5.66451 -46.84356,-6.96711 -3.83316,-0.6699 -4.05957,-0.9947 -5.25638,0.59682 -4.98828,4.8687 -10.80315,13.61728 -23.63397,17.90084 -8.11168,1.88994 -27.98929,5.27986 -27.98929,4.08623 0,-0.29841 3.45744,-2.18835 7.84573,-4.07828 9.57444,-4.37666 23.27121,-14.52258 26.72866,-19.99341 2.90865,-4.09621 3.01261,-4.36099 0.59788,-6.05812 0,0 -8.84253,-3.68993 -21.87442,-10.95122 -13.16488,-7.2613 -23.13826,-14.82099 -28.98931,-21.78389 -14.7606,-17.90457 -23.67016,-48.541256 -18.21805,-62.864896 8.24467,-21.286535 13.03189,-27.453662 31.64888,-40.782612 18.179,-13.226109 39.19685,-17.34619 63.16475,-18.70032 5.71809,-0.298409 13.56382,-1.094167 17.55317,-1.690986 10.37232,-1.690988 67.81899,-1.591517 82.44664,0.09946 6.24999,0.696288 14.62763,2.387274 18.61699,3.580912 3.98934,1.193637 11.56911,3.282504 16.62229,4.476142 16.88826,4.07826 35.10632,10.543796 42.28716,15.019936 5.18615,3.183033 15.42549,13.92577 20.74463,21.684412 2.52658,3.779854 6.78191,14.821 10.90422,28.945716 0.79789,2.48673 1.17939,6.86569 1.32978,9.64856 0.49368,9.133806 2.39364,7.460236 2.65959,1.9894 0.26596,-6.36606 -0.26595,-9.35016 -4.3883,-22.579644 -2.39361,-7.957577 -5.98402,-16.114101 -8.51061,-19.993422 -4.38829,-6.565005 -11.56912,-15.119408 -14.76062,-17.606152 -0.93085,-0.696289 -2.52659,-2.188334 -3.45743,-3.183033 -4.12235,-4.47614 -25.9308,-12.334253 -49.46799,-18.004031 -5.05317,-1.193637 -11.43614,-2.984093 -14.09572,-3.978793 -2.52659,-0.994697 -9.44145,-2.188335 -15.29252,-2.7851525 -10.77125,-1.094166 -64.7605,-2.486744 -65.82432,-1.69098 z" />
  <path
     style="fill:#000000;stroke:none"
     d="m 914.35502,84.235324 c -2.2,2.3 -2.9,2.5 -7.5,2 -5.7,-0.7 -10.2,0.6 -12.3,3.6 -0.9,1.3 -2,1.8 -3.4,1.4 -2.2,-0.8 -9.3,3.6 -10.9,6.7 -0.5,1 -1.6,1.8 -2.3,1.8 -0.8,0 -1.6,0.699996 -2,1.499996 -0.3,0.8 -1.1,1.5 -1.9,1.5 -1.5,0 -6.7,7.4 -6.7,9.5 0,0.7 -0.8,2.3 -1.9,3.6 -1,1.3 -2.1,4.2 -2.5,6.4 -0.5,2.6 -2,5.3 -4.2,7.6 -3.3,3.4 -3.5,3.9 -2.9,8.5 0.4,2.7 0.7,5.6 0.7,6.4 0,0.8 0.4,4.1 0.9,7.2 l 1,5.7 -4,3.7 c -6.6,5.9 -8.1,16.5 -3.6,25.3 3.1,6.3 7.6,9.1 14.3,9.1 l 5,0 0.6,7.2 c 0.3,4 0.7,10.4 0.9,14.2 0.2,6.9 0.2,6.9 -2.8,7.8 -3.2,1.1 -34.2,16.2 -41,20.1 -2.2,1.2 -6.8,3.9 -10.3,6 -3.5,2 -6.5,3.7 -6.7,3.7 -0.3,0 -3.9,2.2 -8.2,4.9 -9.2,5.9 -24.2,18.4 -27.2,22.6 l -2.1,3.1 2.1,7.4 c 2,7.1 5.9,15.3 14.4,30 2.1,3.6 5.4,9.2 7.3,12.6 5.1,9.1 11.1,16.8 16.7,21.2 2.8,2.2 7.4,6.4 10.4,9.2 3,2.8 7.5,6.3 10,7.7 2.5,1.5 6.1,3.7 7.9,5.1 3.1,2.3 3.4,2.3 5.2,0.7 1,-0.9 2.3,-1.5 2.7,-1.2 0.9,0.6 0.9,80.4 0,84.7 -0.3,1.4 -1.1,6.9 -1.8,12.2 -1,7.8 -1,10 0.1,11.2 2.1,2.6 2.9,0.9 2.9,-5.9 0,-3.5 0.5,-10.1 1.1,-14.7 0.6,-4.6 1.3,-10.2 1.6,-12.5 0.3,-2.4 0.9,-4.5 1.4,-4.8 0.5,-0.3 3.5,-1 6.7,-1.6 8.7,-1.6 17.1,-6.4 20.5,-11.8 2.5,-4 2.8,-5.4 2.8,-12.8 0,-4.6 0.2,-8.3 0.5,-8.3 0.2,0 4.5,1.4 9.5,3.1 7.2,2.5 9.3,2.9 10.5,1.9 1,-0.8 3.3,-1 7.3,-0.5 l 5.9,0.7 -0.5,8.1 c -0.2,4.5 -0.7,8.5 -1.1,8.8 -0.5,0.5 -8.9,2.6 -14.1,3.5 -2.1,0.4 -18.3,2.4 -19.2,2.4 -0.5,0 -1.3,1.1 -1.7,2.4 -0.7,1.6 -0.2,5.7 1.6,13.7 5,22.8 6.2,30.3 5,31.2 -0.7,0.4 -6.1,0.6 -12.2,0.3 -10.9,-0.6 -81.4,-1.9 -107.5,-2 -10.3,-0.1 -13.5,0.2 -13.5,1.2 0,1.3 4.5,1.5 91.5,2.7 23.3,0.4 42.8,0.9 43.2,1.1 0.4,0.3 1,2.1 1.3,4.2 0.4,2 1.3,7 2.1,11.1 0.8,4 2.3,13 3.4,20 1.1,6.9 3.1,16.6 4.4,21.6 1.3,4.9 2,9.2 1.5,9.5 -0.5,0.3 0,1.4 1.1,2.3 2.2,1.9 4,2.2 4,0.8 0,-0.5 1.5,-1.4 3.3,-1.9 5.4,-1.7 41.5,-7.5 43,-6.9 0.9,0.3 1.7,2.8 2.1,6.4 0.4,3.2 1,6.8 1.3,8 0.5,2.2 0.3,2.3 -7.5,2.3 l -8.1,0 -1.6,5.7 c -0.9,3.2 -1.8,6.5 -2.1,7.5 -0.3,0.9 0.7,3.3 2.1,5.3 1.4,2.1 2.5,4.2 2.5,4.6 0,0.5 1.1,0.9 2.5,0.9 3.2,0 3.1,-0.6 -0.5,-5.4 -3,-3.9 -3.9,-7.9 -2.1,-9 0.8,-0.5 3.3,2 11.5,11.9 2.3,2.7 2.6,2.9 4.1,1.4 1.5,-1.4 1,-2.2 -6,-9.3 -4.1,-4.2 -7.3,-8.1 -7,-8.7 0.4,-0.5 3.5,-0.9 7,-0.9 6.1,0 6.5,0.2 7.9,2.9 1.5,2.9 15.3,16.1 16.8,16.1 2.6,0 -0.1,-4.3 -5.7,-9.3 -3.6,-3.2 -6.5,-6.2 -6.5,-6.8 0,-0.5 1.7,-0.8 3.8,-0.7 2.2,0 4.4,-0.2 5,-0.6 2.7,-1.6 0.8,-2.6 -4.8,-2.6 -5.3,0 -6.1,-0.3 -6.9,-2.2 -1.1,-2.7 -3.4,-17.8 -2.9,-18.4 0.5,-0.4 47.99998,-8.5 48.39998,-8.2 0.4,0.5 2.4,19.2 2,19.5 -0.1,0.2 -2,-1.1 -4.2,-2.8 l -3.9,-3.1 -2.19998,2.9 c -2.7,3.3 -2.7,3.8 -0.9,9.1 2.19998,6.2 5.39998,10.4 10.69998,14 2.6,1.9 5.5,4.9 6.4,6.8 1,2.1 2.3,3.4 3.5,3.4 2.4,0 2.4,0.1 0.5,-4.3 -0.9,-2.2 -3.3,-4.7 -6.7,-7 -6.6,-4.4 -8.2,-6.1 -10.8,-11.9 -1.7,-3.8 -1.9,-7.8 -0.4,-7.8 1.3,0 17.9,12.9 21.3,16.5 4.2,4.5 5.5,5.3 6.5,3.6 0.5,-0.8 -0.1,-2.5 -3.3,-8.7 -0.3,-0.7 -3,-4.7 -5.8,-9 -7.8,-11.6 -8.1,-17.9 -0.9,-17.2 3,0.3 6.9,5.1 20.7,25.8 3.3,5 3,0.9 -0.5,-7.3 -4.6,-10.8 -7.7,-22.7 -6.3,-24.5 0.6,-0.7 2.2,-1.2 3.6,-1 2.7,0.3 5.2,3.5 12.3,15.3 2.3,3.8 6,9.9 8.3,13.5 2.3,3.6 4.5,7.3 4.8,8.2 0.7,1.9 2.7,2.5 2.7,0.8 0,-0.6 -0.8,-2.7 -1.9,-4.8 -2,-4 -1.6,-6.5 2.3,-12.9 2.4,-4 8.7,-6.8 11.6,-5.3 2.6,1.4 2.5,2.1 -0.5,7.8 -1.7,3.2 -2.8,7.6 -3.5,14.2 -0.6,5.2 -1.3,11 -1.6,12.8 -0.6,2.9 -0.4,3.3 1.2,3 1.1,-0.2 2,-1.3 2.2,-2.6 0.2,-1.5 1,-2.2 2.5,-2.2 5.2,-0.1 16.8,-1.1 23.9,-2.1 4.2,-0.6 8.2,-0.8 8.8,-0.4 0.6,0.4 12.2,0.7 25.8,0.7 l 24.7,-0.1 5.2,3.5 c 2.9,1.8 5.6,3.4 6,3.4 1.5,0 10.3,-23.8 10.3,-27.6 0,-0.9 1.1,-1.4 3.1,-1.4 3.8,0 6.9,-1.6 6.9,-3.6 0,-1.1 -0.5,-1.4 -1.7,-0.9 -3.4,1.3 -19.8,1.7 -24,0.6 -2.4,-0.6 -6.2,-1.6 -8.5,-2.1 -12,-2.9 -18.8,-7.6 -18.8,-13 0,-2.8 2.5,-7.5 6.6,-12.7 2.8,-3.3 3.4,-5 3.4,-8.7 0,-6 1.6,-6 6.6,0.4 2.1,2.7 4.6,4.9 5.5,5 2.4,0 4.9,-3.3 4.9,-6.6 0,-3.5 -4.5,-11.1 -9.2,-15.4 l -3.3,-3 2.5,-2.1 c 1.9,-1.6 3.3,-2 6.3,-1.5 2.8,0.5 3.8,0.3 3.5,-0.6 -0.5,-1.5 -2.1,-2.3 -9.1,-4.9 -4.1,-1.5 -6.1,-2.8 -7.2,-4.9 -1.4,-2.6 -1.3,-3 1.5,-6.8 3,-4.2 9.9,-8 23.7,-13.3 3.5,-1.3 6.5,-3.1 6.8,-3.9 0.3,-0.8 2.1,-3.3 4,-5.4 2.9,-3.3 3.7,-3.7 5,-2.6 2,1.7 4.4,-0.2 2.8,-2.2 -1.7,-2.1 -1.6,-16.9 0.1,-21.9 1.6,-4.7 1.2,-6.5 -0.9,-3.6 -1.3,1.8 -3.5,14.2 -3.5,19.7 0,3.5 -1.6,4 -2.6,0.7 -1.3,-4 -0.6,-12.1 1.6,-18.2 5.8,-15.6 19.3,-25.1 36.3,-25.6 6.3,-0.2 16.7016,-4.35192 9.7768,-4.31656 -3.1,-0.8 -20.1768,1.91656 -22.7768,3.21656 -1,0.5 -5.2,2.5 -9.4,4.6 l -7.5,3.8 -34.5,-1.7 c -18.9,-0.8 -38,-1.5 -42.4,-1.5 -4.4,0.1 -13.6,-0.3 -20.5,-0.9 -6.8,-0.5 -12.6,-0.8 -12.9,-0.6 -0.4,0.4 -1.9,52.8 -2,70.5 l -0.1,8.5 -8.2,0 -8.3,0 -0.7,-4.7 c -0.3,-2.7 -2,-9 -3.7,-14 -1.6,-5.1 -3.7,-13.1 -4.6,-17.8 -3.7,-19.5 -7.7,-37.6 -8.4,-38.3 -0.4,-0.4 -1.9,-0.4 -3.2,0.1 -2.8,1.1 -30.1,6.4 -43.9,8.6 -5.19998,0.8 -12.49998,2 -16.09998,2.5 -8.8,1.4 -8.6,1.5 -8.6,-1.6 0,-1.6 -0.6,-8.7 -1.2,-15.8 -4.9,-52.7 -5.1,-72.9 -0.6,-97.5 0.7,-4.1 1.7,-13.7 2.1,-21.2 l 0.7,-13.7 5.1,-0.6 c 2.8,-0.3 7.9,-0.7 11.4,-1 3.5,-0.3 8.19998,-1 10.49998,-1.6 8.7,-2.3 30.2,-15.6 37.6,-23.2 l 4.4,-4.6 -0.7,-12.3 c -0.4,-7.4 -1.6,-16.5 -3.1,-22.8 -1.4,-5.8 -3.4,-14.8 -4.6,-20 -1.1,-5.2 -2.4,-10.4 -2.9,-11.5 -0.5,-1.1 -2,-6.5 -3.3,-12 -2.1,-8.3 -2.4,-11.6 -2,-19.2 l 0.6,-9.2 -5.5,-5.3 c -4,-3.8 -5.7,-6.3 -6.2,-8.9 -0.8,-4.7 -3.4,-6.9 -8.7,-7.4 -3.7,-0.3 -5.1,-1.3 -11.29998,-7.4 -4,-3.9 -7.7,-7.1 -8.4,-7.1 -2.5,0 -9,4 -13.1,8 -6.4,6.3 -12.1,14 -12.1,16.1 0,1.7 -0.5,1.9 -3.7,1.5 -2.1,-0.3 -4.1,-0.5 -4.4,-0.5 -0.4,-0.1 -0.9,-1 -1.2,-2.1 -0.3,-1.1 -1.2,-2 -2.1,-2 -0.9,0 -1.6,-0.8 -1.6,-1.9 0,-2.1 -2.2,-3.3 -4.5,-2.5 -0.8,0.4 -2.2,0.1 -3,-0.6 -0.8,-0.7 -2.5,-1 -3.7,-0.7 -1.3,0.3 -3.2,-0.1 -4.2,-0.9 -1.7,-1.2 -2.2,-1.2 -3.8,0.3 -2,1.7 -2.8,1.3 -4.2,-2.2 -0.2,-0.6 -1.2,-0.5 -2.6,0.3 -2,1.2 -2.5,1.1 -4.3,-0.6 l -2,-2.1 -1.7,2.2 c -1.6,1.9 -2,2 -3.5,0.7 -1.4,-1.2 -1.9,-1 -3.9,1.4 -1.7,2.2 -2.7,2.7 -4.5,2.1 -1.3,-0.4 -2.8,-0.2 -3.6,0.5 -1.2,1 -1.8,1 -3,0 -0.9,-0.7 -1.6,-1.1 -1.8,-0.9 -0.1,0.2 -0.7,1.3 -1.3,2.4 -0.6,1.1 -2,2.2 -3,2.4 -1,0.2 -2.3,0.9 -2.7,1.7 -0.4,0.8 -1.5,1.4 -2.3,1.4 -0.8,0 -1.8,1 -2.3,2.1 -0.4,1.2 -2.2,2.7 -4.2,3.3 -2.5,0.8 -3.4,1.7 -3.4,3.3 0,1.2 -0.8,3.1 -1.7,4.3 -1,1.1 -1.8,2.7 -1.8,3.4 0,0.8 -0.6,2.1 -1.4,2.9 -0.8,0.7 -1.4,2.9 -1.3,4.8 0.2,3.1 -0.1,3.4 -2.8,3.7 -1.6,0.2 -4.4,1.5 -6.2,2.8 -3.5,2.7 -4.3,2.9 -4.3,1.3 0,-0.5 0.4,-0.8 0.9,-0.5 0.5,0.3 1.1,0 1.4,-0.8 0.3,-0.8 0,-1.7 -0.8,-1.9 -0.9,-0.4 -1.2,-2.2 -0.9,-6.6 0.2,-3.5 -0.1,-6.1 -0.6,-6.1 -0.6,0 -1,-1.6 -1,-3.6 0,-2.9 0.8,-4.4 4.1,-7.6 2.6,-2.5 3.8,-4.5 3.5,-5.5 -0.4,-0.9 -0.1,-2.2 0.5,-2.9 0.6,-0.7 0.8,-1.7 0.5,-2.2 -0.3,-0.5 0.3,-1.7 1.4,-2.7 1.2,-1.1 1.8,-2.6 1.5,-3.6 -0.4,-1 0.2,-2.3 1.3,-3.1 1,-0.7 2.1,-2.1 2.5,-3 0.4,-1.1 1.2,-1.5 2.2,-1.2 1.1,0.5 1.8,0 2.2,-1.5 0.3,-1.2 1.3,-2.1 2.4,-2.1 1.2,0 1.9,-0.7 1.9,-2 0,-1.099996 0.5,-2.099996 1,-2.099996 0.6,-0.1 1.4,-0.2 2,-0.3 0.5,0 1.7,-1.1 2.6,-2.4 1,-1.4 2.2,-2.1 3.2,-1.7 1.1,0.3 2.8,-0.6 4.5,-2.4 2.1,-2.2 3.5,-2.9 6.4,-2.8 2.1,0 4.5,0.6 5.5,1.4 1.1,1 1.8,1.1 2.3,0.4 0.3,-0.6 1.7,-1.1 3.1,-1.1 1.3,0 2.4,-0.6 2.4,-1.3 0,-0.7 0.5,-1.8 1.2,-2.5 0.9,-0.9 1.6,-0.8 3,0.5 1.4,1.3 2.1,1.4 3,0.5 1.5,-1.5 4.1,-1.5 5.6,0 0.6,0.6 3.5,1.3 6.4,1.4 4.3,0.2 5.7,0.8 7.3,2.8 1.6,2 2.4,2.3 3.8,1.5 1.9,-1.1 4.8,-0.5 4.6,0.8 -0.4,2.3 0.3,3.3 2.5,3.3 1.7,0 2.6,0.7 3,2.5 0.4,1.399996 1.3,2.499996 2,2.499996 0.8,0 1.9,1.3 2.5,3 0.5,1.6 1.6,3 2.3,3 0.7,0 2.4,1.6 3.7,3.5 1.3,2 4.74648,5.24648 5.34648,5.04648 2,-0.7 -1.34648,-5.94648 -5.54648,-10.24648 -2.3,-2.3 -5.1,-5.3 -6.2,-6.799996 -1.1,-1.4 -2.6,-3.1 -3.3,-3.8 -0.7,-0.7 -2.7,-2.4 -4.3,-4 -1.7,-1.5 -4.1,-2.7 -5.6,-2.7 -1.5,0 -3.4,-0.7 -4.3,-1.5 -1.5,-1.3 -6,-2.3 -18.5,-4 -1.6,-0.2 -3.9,-0.7 -5,-1 -1.4,-0.4 -2.8,0.2 -4.5,2 z m 82.8,26.599996 c 2.8,2.9 5.19998,5.8 5.19998,6.5 0,1.5 -6.99998,8.3 -8.49998,8.3 -0.5,0 -2,-0.8 -3.3,-1.9 -2,-1.6 -2.1,-2.2 -1,-3.9 2.2,-3.5 0,-3.5 -3.6,-0.1 -6.7,6.6 -16.6,10.1 -18,6.5 -0.7,-1.8 15.1,-18.8 16.5,-17.9 0.5,0.3 1.9,-0.2 3.1,-1 1.2,-0.9 2.7,-1.6 3.3,-1.6 0.6,0 3.4,2.3 6.3,5.1 z m -75.2,7 c 0.3,0.6 1.7,0.9 3,0.6 1.3,-0.2 2.9,0.2 3.5,0.9 1.4,1.7 4.1,1.8 5.6,0.3 0.8,-0.8 1.7,-0.8 3.2,0.1 1.2,0.6 4.5,1.3 7.3,1.5 3.9,0.2 5.4,0.8 5.9,2.2 0.4,1 2.1,3.1 3.7,4.7 2.3,2.1 3.7,2.7 5.5,2.3 3.3,-0.9 8.6,2.9 8.7,6 0,0.9 -1.5,1.3 -4.3,1.3 -3.3,0 -5.5,0.8 -8.5,3 -4.5,3.2 -9.2,11.2 -9.2,15.6 0,2.1 -0.3,2.5 -1.7,1.8 -1,-0.5 -4,-0.9 -6.8,-1 -4.7,-0.2 -5,-0.3 -5.9,-3.4 -0.6,-1.8 -3.3,-5.8 -6.2,-9 0,0 -3.12503,-2.70085 -5.3,-3.55636 -2.17497,-0.85551 -6.3,-1.64364 -6.3,-1.64364 -3.8,0.3 -8.4,1.4 -11.5,2.9 -4.4,2 -5.7,3.3 -8.5,8.4 l -3.3,6.1 -4,-0.7 c -2.2,-0.3 -5.5,-1 -7.2,-1.6 -2.9,-0.9 -3.3,-1.5 -3.3,-4.5 0,-3.9 5.9,-16.4 7.8,-16.4 0.7,0 2.3,-1 3.5,-2.3 4.5,-4.7 11.6,-8.6 16.9,-9.3 2.9,-0.4 6.1,-1.4 7.1,-2.3 1.1,-0.9 2.9,-1.5 4.2,-1.3 1.3,0.2 2.6,-0.2 3,-0.7 0.8,-1.4 2.2,-1.4 3.1,0 z m 93.09998,3.5 c 0.6,0.9 1.4,3.3 1.8,5.3 0.5,2.9 1.6,4.5 4.5,6.7 6.9,5.2 7.7,9.1 4.6,22.7 -1.3,5.8 -2.3,8 -3.9,8.9 -3.3,1.7 -20.7,2.3 -25.29998,0.8 -8.9,-2.9 -14.6,-9 -16.4,-17.5 -0.9,-4.4 -0.8,-5.8 0.9,-9.7 3.2,-7.5 6.9,-7.7 15.7,-0.7 3.49998,2.8 6.39998,5.7 6.39998,6.5 0,2.1 -9.39998,1.9 -13.09998,-0.3 -1.5,-0.9 -3.2,-1.4 -3.6,-0.9 -1.1,1.1 3.6,4.4 7.4,5.1 3.5,0.6 6.69998,4.3 7.79998,8.8 0.4,1.5 1.1,2.7 1.6,2.7 1.2,0 1.1,-1.8 -0.6,-6.5 -1.7,-4.8 -1.7,-4.5 -0.7,-4.5 0.5,0 1.4,1.1 2,2.4 1.5,3.3 8,5.2 12.6,3.6 4.1,-1.3 6.8,-4.2 6,-6.3 -0.3,-0.8 0.2,-2.6 1,-3.9 0.9,-1.4 1.3,-2.7 1,-3.1 -0.8,-0.7 -5.4,1.4 -5.4,2.5 0,0.5 -0.9,0.4 -1.9,-0.2 -3.3,-1.7 -6.1,-1.2 -6.1,1 0,1.7 0.7,2 3.8,2 4.8,0 5.7,0.8 3.5,3.2 -1.9,2.2 -9,2.5 -11.8,0.5 -1.6,-1.2 -1.7,-1.8 -0.6,-4.8 1.1,-3.1 1,-3.6 -1.3,-5.4 -1.4,-1.1 -4.5,-3.6 -6.89998,-5.5 l -4.4,-3.5 3.1,-3.8 c 6.19998,-7.8 14.89998,-10.6 18.29998,-6.1 z m -24.29998,6.3 1.9,2.1 -4.5,0 c -4.1,0 -4.7,0.3 -6.9,3.7 -1.4,2.1 -3,5 -3.7,6.5 -1,2.5 -1.4,2.7 -3.7,1.6 -2.8,-1.3 -3.2,-2.3 -1.1,-3.1 0.8,-0.3 1.7,-2.3 2.1,-4.5 0.5,-3.4 1.2,-4.2 4.6,-5.7 2.1,-1 4.4,-2.4 5,-3.1 1.3,-1.6 3.4,-0.7 6.3,2.5 z m -18.6,4.5 c 0.3,1.2 -0.1,1.7 -1,1.4 -0.7,-0.3 -1.5,-1.3 -1.6,-2.2 -0.3,-1.2 0.1,-1.7 1,-1.4 0.7,0.3 1.5,1.3 1.6,2.2 z m -4.5,11 c 1.8,0.7 4.8,3 6.7,5 3.3,3.5 3.5,4.2 3.8,11.4 0.3,6.8 0.1,8 -2,10.7 -2.6,3.4 -3.1,3.6 -10.5,4.3 -7.3,0.6 -10.8,-1 -12.8,-6.1 -4.3,-10.7 0.2,-24.5 8.5,-26 1.4,-0.2 2.6,-0.5 2.8,-0.6 0.1,0 1.7,0.5 3.5,1.3 z m -47.9,4 c 4.9,2.1 7.8,6.7 7.8,12.6 -0.1,5.7 -1.7,9.3 -6.6,13.9 -2.7,2.7 -4.5,3.5 -8.4,3.9 -12.9,1.2 -18.5,-6.7 -14.2,-19.9 2.5,-7.8 2.8,-8.2 6.5,-10.2 3.7,-2 10.5,-2.1 14.9,-0.3 z m -47,13.8 c 1.2,3.7 1.6,8.1 0.7,7.3 -1.7,-1.7 -4,-6.8 -3.5,-7.7 0.8,-1.2 2.4,-1 2.8,0.4 z m 13.9,0.7 c 1.9,0.8 2.6,2.1 3.7,7.3 1.1,5.2 2,6.9 5.3,10 4.5,4.2 8.4,5.3 16.2,4.5 9.5,-1 15.8,-5.4 19.4,-13.9 2.1,-5.1 4.4,-6.8 8.8,-6.8 3.7,0 4.8,0.9 5.7,4.4 1.9,7.9 10.6,12.4 21.4,11.2 4.6,-0.5 5.6,-0.3 7.6,1.6 1.4,1.3 3.4,4.2 4.6,6.6 3.2,6.2 2,11.8 -5.5,24.1 -4.7,7.7 -16,15 -28.1,18.1 -15,3.9 -33.3,0.6 -46,-8 -4,-2.8 -6.4,-3.2 -6.4,-1.1 0,1.8 19.6,11.8 31.3,16 1.4,0.5 0.4,1.4 -4.7,4.4 -3.6,2 -7.1,3.7 -7.9,3.7 -2.5,0 -15.2,-4.9 -21.2,-8.2 -8.8,-4.9 -13.3,-8 -14.4,-10.3 -1.1,-2.2 -3.1,-20.8 -3.1,-28.7 0,-5.3 -1.8,-7.1 -5.1,-5 -6.6,4.2 -16.8,-4.6 -16.9,-14.5 0,-2.5 0.4,-3 1.8,-2.7 1.2,0.4 2.3,-0.6 3.6,-3.1 1.9,-3.5 3.9,-4.5 5.1,-2.4 0.4,0.6 -0.2,1.7 -1.4,2.5 -2.7,1.9 -5.4,7.1 -4.7,9 0.3,0.8 1.3,1.4 2.2,1.4 1.2,0 1.5,-0.6 1,-2.3 -0.4,-1.7 0.1,-3 1.9,-4.7 l 2.4,-2.3 1,2.4 c 0.5,1.3 1.2,3.2 1.5,4.1 0.9,2.9 2.6,2 2.6,-1.2 0,-3.9 -2.5,-9.9 -4.8,-11.6 -2.7,-2.1 -6.1,-1.6 -8.9,1.3 l -2.6,2.8 1.7,-3.2 c 3.2,-6.4 8.4,-7 14.2,-1.7 2.1,2 3.8,4.2 3.6,4.9 -0.3,1.5 3.2,3 4.8,2 1.2,-0.7 1.3,-4.5 0.1,-6.3 -0.4,-0.7 -0.6,-2.5 -0.3,-3.9 0.4,-2.3 0.8,-2.5 4.3,-1.9 2.1,0.3 4.9,1 6.2,1.5 z m 104.1,12.9 c 0.9,5.7 1.9,17 2.2,25 0.3,8.1 0.7,16.1 0.9,17.9 0.3,3.1 0.1,3.3 -5.3,5.3 -3.1,1.2 -9.5,2.6 -14.2,3.1 -4.7,0.5 -9.8,1.2 -11.5,1.5 -2.8,0.5 -2.6,0.3 1.5,-2.4 6.5,-4.3 10.3,-8.7 14.8,-17.4 5.3,-9.9 6.1,-15.1 3.4,-21.2 -1.3,-2.8 -3,-5 -4.5,-5.5 -3.1,-1.2 -4,-3.5 -1.8,-4.8 2.8,-1.8 5.8,-8.9 6,-14.6 0.1,-1.6 0.4,-1.5 3.4,0.5 3.3,2.1 3.5,2.6 5.1,12.6 z m 39.89998,-2.8 c 2.6,9.1 2.4,9.5 -3.9,12.4 -4.4,2 -7.2,2.6 -12.8,2.6 -7.6,0 -16.59998,-2.1 -18.39998,-4.3 -0.6,-0.7 -1.4,-4.4 -1.8,-8.2 -0.7,-6.5 -0.6,-6.8 1.2,-6 1,0.4 6.39998,0.9 11.89998,1.2 8.2,0.4 11,0.1 15.5,-1.5 3,-1.1 5.8,-2 6.1,-2.1 0.3,0 1.3,2.6 2.2,5.9 z m 4.2,16.2 c 0.3,1.3 2.1,9 4.1,17.3 3,12.6 3.6,17 3.8,27.2 l 0.1,12.2 -3.5,3.6 c -3.8,4 -17.2,13 -26,17.6 -7.3,3.8 -14.39998,5.6 -26.19998,6.4 l -9.8,0.7 0,-4.1 c 0,-3 -0.4,-4.1 -1.5,-4.1 -1.1,0 -1.5,1.1 -1.5,3.9 0,2.2 -0.5,4.3 -1.1,4.7 -0.8,0.5 -0.8,0.9 0.1,1.4 2.1,1.3 0.5,27.7 -2.4,40.5 -0.8,3.3 -1.7,8.2 -2,11 -0.9,7.1 -1,30.4 -0.1,41.1 0.6,7.5 0.5,9.6 -0.9,12.5 -1.9,3.7 -6.8,8.1 -9.4,8.4 -0.9,0.1 -2.4,0.4 -3.2,0.8 -0.8,0.3 -4.6,1.3 -8.5,2.2 -3.8,0.9 -9.6,2.6 -12.8,3.7 -4.8,1.6 -7.1,1.8 -13.5,1.2 -4.2,-0.4 -12.2,-0.7 -17.7,-0.8 -8.7,-0.1 -10.5,-0.4 -13.5,-2.4 l -3.5,-2.3 4.4,0.3 4.4,0.3 1.2,-4.5 c 0.6,-2.5 1.9,-5.9 2.8,-7.7 2.3,-4.3 2.2,-8.9 -0.3,-11 -1.4,-1.2 -1.6,-1.9 -0.8,-2.4 1.6,-1 -0.5,-7.4 -3.5,-10.6 -1.7,-2 -3.1,-2.3 -8.8,-2.3 -7.6,0 -9.9,-0.6 -9.9,-2.6 0,-0.7 -0.7,-1.7 -1.5,-2.1 -3.2,-1.8 -14.3,-13.3 -12.8,-13.3 2.1,0 1.2,-9 -2.6,-25.5 -4.3,-18.2 -4.2,-19 1.9,-24.3 2.8,-2.4 5,-5 5,-5.8 0,-2.2 -0.7,-1.8 -6.8,3.5 -5,4.3 -18.3,13.1 -19.8,13.1 -0.3,0 -2.5,1.4 -4.9,3 l -4.4,3 -6.2,-4 c -6.6,-4.3 -7.9,-4.7 -7.9,-2.8 0,0.7 2.4,2.6 5.3,4.2 6.2,3.5 12,9.4 19.5,19.6 3,4.1 7,9.1 8.9,11.1 l 3.4,3.6 -8,10.1 c -4.4,5.5 -10.5,11.9 -13.5,14.2 l -5.6,4.2 -3.3,-2.8 c -4.8,-4.2 -24.2,-29.3 -28.2,-36.5 -13.5,-24.4 -16.5,-31.1 -16.5,-36.4 0,-3 12.5,-14.8 23.5,-22 19.4,-12.7 65.8,-36.5 71.1,-36.5 0.7,0 1.3,3.2 1.6,8.7 0.7,12 3.7,18.5 12.4,26.9 3.6,3.5 7,6.4 7.5,6.4 0.4,0 2.5,-2.5 4.5,-5.7 3.6,-5.6 10,-12.2 14.1,-14.4 1.7,-0.9 2.9,-0.9 5,0 3.2,1.3 11.2,8.7 16,14.6 l 3.1,4 3.7,-4 c 5.1,-5.6 10.6,-17.6 11.2,-24.5 l 0.5,-5.6 7.2,-2.2 c 4.9,-1.5 9.7,-2.2 15.3,-2.2 5.9,0 9.4,-0.5 12.8,-2 7,-3 7.7,-2.8 10.5,4.2 2.69998,6.5 5.69998,9.4 4.39998,4.1 -0.4,-1.5 -1,-3.3 -1.5,-3.9 -0.49998,-0.5 -1.49998,-3.6 -2.29998,-6.8 -1.8,-6.8 -3.2,-38.6 -1.8,-38.6 0.5,0 2.8,0.7 5.09998,1.5 2.3,0.8 8.1,1.5 12.9,1.6 6.9,0.1 9.6,-0.3 13.2,-2 5.7,-2.6 6.8,-2.6 7.5,0.1 z m -80.99998,42.8 c -0.3,0.5 -1.1,1 -1.6,1 -0.6,0 -0.7,-0.5 -0.4,-1 0.3,-0.6 1.1,-1 1.6,-1 0.6,0 0.7,0.4 0.4,1 z m -72.2,2.9 c 5.8,4 19.6,10.8 23.4,11.6 1.8,0.3 3.5,1 3.8,1.5 0.3,0.4 -1.5,2.4 -3.8,4.3 -2.4,2 -5.9,5.8 -7.8,8.6 -1.9,2.8 -3.8,5.1 -4.4,5.1 -0.5,0 -3.7,-2.9 -7.1,-6.4 -5.2,-5.3 -6.6,-7.4 -8.3,-13.1 -1.4,-4.5 -1.9,-7.9 -1.5,-10.6 0.4,-2.1 0.9,-3.9 1.1,-3.9 0.2,0 2.3,1.3 4.6,2.9 z m 67.4,3.3 c -0.7,7.6 -4.2,16 -8.7,21 l -3.8,4.3 -4.9,-4.6 c -5,-4.8 -8.5,-7.8 -11.7,-10.2 -2.5,-1.8 -1.5,-4.3 2.1,-5.9 1.5,-0.7 4.5,-2.3 6.5,-3.5 5.1,-3.1 13.6,-5.9 18.7,-6.2 2.2,-0.1 2.3,0.1 1.8,5.1 z m -95.8,62 c 0.7,4 2.4,11.8 3.7,17.3 2.4,10.1 3.1,17.5 1.6,17.5 -1.2,0 -9.8,-8.6 -13,-12.9 -1.4,-2 -5.6,-6.9 -9.2,-11 -3.5,-4.1 -6,-7.6 -5.3,-7.8 0.6,-0.2 5.3,-2.6 10.4,-5.3 5.2,-2.7 9.7,-4.9 10,-4.9 0.3,-0.1 1.1,3.2 1.8,7.1 z m 10.5,44.2 c 5.6,5.2 7.7,7.7 7.1,8.7 -2.4,4 -11.6,13.7 -18.2,19 -5.6,4.6 -7.9,5.8 -9.5,5.3 -3.8,-1.2 -8.8,-4.6 -8.8,-6 0,-0.8 -0.6,-1.4 -1.3,-1.4 -0.8,0 -2.4,-1.1 -3.6,-2.4 l -2.3,-2.4 3.8,-2.5 c 4.3,-2.7 9.1,-7.6 14.9,-15.2 4.9,-6.3 8.7,-10.5 9.5,-10.5 0.3,0 4.1,3.3 8.4,7.4 z m 22.6,13.1 c 1.9,0.2 4.1,0.4 4.8,0.4 1.2,0.1 4.2,5.8 4.2,8.1 0,0.6 -2,-0.1 -4.5,-1.6 -4.8,-2.8 -8.8,-2.7 -6.5,0.1 0.7,0.8 1.8,1.5 2.5,1.5 0.6,0 3.1,1.4 5.5,3.1 4.7,3.4 4.8,4.6 1.3,14.6 -1.8,5.2 -1.8,5.3 -6,5.3 -3,0 -5,0.7 -7.3,2.6 -2.9,2.5 -8.5,4.3 -13.6,4.4 -1.4,0 -3.1,-1.4 -4.9,-4.3 -1.6,-2.3 -3.4,-4.6 -4.2,-5 -0.7,-0.4 -1.3,-1.3 -1.3,-2 0,-0.7 -0.9,-2.3 -2,-3.7 -3.1,-3.9 -2.4,-5.6 3.8,-10 3.2,-2.3 7.7,-6.6 10.1,-9.6 l 4.2,-5.4 5.2,0.5 c 2.9,0.3 6.8,0.8 8.7,1 z m 85,35.4 c 0,7.8 0,7.9 -2.9,9.1 -1.7,0.6 -3.4,0.9 -3.9,0.6 -0.5,-0.3 -1,-3.1 -1.1,-6.3 -0.2,-5.4 0,-5.9 3.1,-8.5 1.8,-1.5 3.6,-2.8 4.1,-2.8 0.4,0 0.7,3.5 0.7,7.9 z m -111.1,1.6 4.3,6.4 4.5,-0.6 4.5,-0.6 -0.6,3.8 c -0.4,2.2 -0.8,4.1 -1.1,4.3 -0.5,0.6 -7.1,-1.5 -12.7,-4 l -4.8,-2.1 0,-6.9 c 0,-3.7 0.4,-6.8 0.8,-6.8 0.5,0 2.7,2.9 5.1,6.5 z m 101.1,6.1 c 0,7 0.3,7.2 6,5.3 2.5,-0.9 3.4,-0.9 4,0.1 1,1.7 2.4,20.9 1.6,21.7 -0.6,0.6 -7.2,1.8 -20.2,3.9 l -4.1,0.6 -0.6,-5.3 c -1.2,-9.9 -1.1,-10.6 2.7,-11.9 5.7,-1.8 7.2,-4.5 7.5,-13 0.3,-7.9 0.7,-9.4 2.2,-8.5 0.5,0.4 0.9,3.5 0.9,7.1 z m -5.6,0.6 c -0.3,4 -0.8,7.6 -1.1,8 -0.7,1.3 -6.7,3.6 -11.1,4.3 l -4.3,0.7 0.3,-8.3 0.3,-8.3 7.5,-1.7 c 4.1,-0.9 7.9,-1.7 8.3,-1.8 0.4,0 0.5,3.2 0.1,7.1 z m -66.6,-3.6 c 3.1,1.5 7.6,2.9 10,3.2 l 4.2,0.5 0,7.3 c 0,8.6 -0.1,8.6 -9.4,5.5 -7.7,-2.7 -11.6,-5.2 -12.3,-7.9 -0.6,-2.3 0.5,-11.2 1.3,-11.2 0.3,0 3.1,1.2 6.2,2.6 z m -10.2,5.5 c -0.6,5.7 -0.4,6.3 1.9,8.5 2.4,2.3 2.5,2.7 1.9,10.1 -0.9,10.5 -2.7,14.2 -8.8,18.5 -5.4,3.8 -18.1,7.5 -19.2,5.6 -1.1,-1.7 -1,-38.6 0.1,-39.7 0.6,-0.6 2.4,-0.3 5,0.9 7,3.1 13.6,5.2 14.3,4.6 0.3,-0.4 0.7,-3.2 0.9,-6.3 0.3,-5.5 1.5,-8.3 3.6,-8.3 0.6,0 0.8,2.2 0.3,6.1 z m 57.4,3.9 c 0,7.7 -0.1,8 -2.5,8.5 -1.4,0.3 -3.7,0.8 -5.2,1.2 -3.6,0.9 -14.3,1 -14.3,0.2 0,-0.4 -1.5,-1 -3.4,-1.3 -3.9,-0.7 -4.6,-2.3 -4.6,-10.4 l 0,-5.2 4.8,0 c 2.7,0 7.3,0.4 10.3,1 4.2,0.8 6.3,0.6 9.4,-0.5 2.2,-0.8 4.3,-1.4 4.8,-1.5 0.4,0 0.7,3.6 0.7,8 z m 190.99998,9.1 c 10.7,0.5 30.1,1.2 43,1.5 12.9,0.3 23.5,0.6 23.6,0.7 0.2,0.1 -1.3,2.4 -3.2,5 l -3.4,4.7 -11,0 c -6,0 -13.1,-0.4 -15.7,-0.9 -2.6,-0.6 -10.9,-1.3 -18.3,-1.6 -7.4,-0.4 -17.8,-1 -23,-1.4 -5.2,-0.4 -13.2,-0.7 -17.8,-0.7 l -8.3,0.1 -0.4,11 c -0.3,6 -0.7,24.3 -0.9,40.5 -0.3,16.2 -0.8,32 -1.1,35.1 -1.1,8.1 -0.3,8.5 22,9.4 9.9,0.3 21.4,0.8 25.5,1 l 7.5,0.4 0.3,3.3 c 0.5,5.1 -1.5,6.9 -6.3,5.9 -2.2,-0.5 -10.1,-1.2 -17.5,-1.6 -18.9,-0.9 -33.1,-2.4 -35.8,-3.7 l -2.3,-1.2 0.5,-27.6 c 1.1,-55.1 1.8,-80.5 2.3,-81.3 0.3,-0.5 5.1,-0.6 10.7,-0.2 5.5,0.3 18.9,1 29.6,1.6 z m -181.49998,8.5 c 0.4,4.1 0.5,7.7 0.3,7.9 -0.2,0.2 -2.2,0.7 -4.3,1 l -4,0.7 -0.3,-7.5 c -0.4,-8.1 0.5,-9.6 5.4,-9.7 2,0 2.2,0.7 2.9,7.6 z m -10.3,1.6 c 0.2,4 0.1,7.6 -0.2,8.1 -0.7,0.8 -2.1,1.1 -9.7,2.2 l -5.3,0.7 0,-8.4 c 0,-4.7 0.2,-8.7 0.4,-8.9 0.3,-0.2 3.6,-0.5 7.4,-0.7 l 7,-0.3 z m 111.19998,-5.7 c 0.9,2.5 5.4,23.4 6.7,31.5 0.6,4.1 1.8,9.3 2.6,11.5 2.4,6.7 5.4,18.5 7.3,28.5 1,5.2 2.9,15.3 4.4,22.4 1.4,7.1 2.3,13.3 1.9,13.7 -2,1.9 -33.7,7.8 -35,6.5 -0.2,-0.2 -3,0.2 -6.1,0.9 -3.1,0.7 -11,2.1 -17.4,3.1 -6.4,1 -11.39998,2.2 -11.19998,2.6 0.29998,0.4 -0.2,0.5 -1,0.2 -0.8,-0.3 -6.1,0.5 -11.7,1.7 -7.5,1.7 -9.7,2.5 -7.9,2.9 2.3,0.6 2.3,0.7 -0.9,1.3 -4.6,1 -7.2,0.7 -4.1,-0.4 6.2,-2.1 -21.7,1.6 -44.7,6 -2.8,0.5 -6,1.4 -7,1.9 -1.8,1 -16.3,2.5 -16.3,1.7 0,-0.2 -0.7,-3 -1.6,-6.2 -0.8,-3.2 -1.7,-6.7 -1.9,-7.8 -1.4,-6.4 -2.8,-14 -5.6,-30 -1.7,-9.9 -4.2,-23.7 -5.5,-30.8 -1.3,-7 -2.4,-13.7 -2.4,-15 0,-1.2 -0.9,-5.1 -2,-8.5 -1.1,-3.5 -2,-7.6 -2,-9.1 0,-2.6 0.2,-2.7 9.8,-4.3 5.3,-0.9 16.9,-3.1 25.7,-4.7 23.2,-4.5 35.2,-6.5 61,-10.6 21.29998,-3.3 44.99998,-7.2 56.99998,-9.4 7.1,-1.3 7.2,-1.3 7.9,0.4 z m 93.1,7.5 c 12.1,0.6 27,1.3 33.1,1.6 13.2,0.7 13.9,1 12.3,5 -0.8,1.8 -1.2,7.4 -1.1,14.4 0.1,11.1 0,11.6 -2.5,14.2 -3,3.2 -8.3,6.1 -16.3,9 -3,1.2 -6.6,2.9 -8,3.8 -1.4,0.9 -3,1.9 -3.6,2.1 -0.7,0.2 -3,2.7 -5.3,5.6 -3.4,4.4 -3.9,5.6 -3.1,7.5 1.4,3.4 3.1,5.3 6.8,7.5 l 3.2,2 -3,2.8 c -1.7,1.6 -3,3.1 -3,3.5 0,0.3 2.3,2.3 5.1,4.4 5.3,3.9 9.5,11 8.3,14 -0.9,2.3 -1.3,2.1 -6.4,-2.9 l -4.6,-4.5 -20.9,-0.4 c -11.6,-0.2 -24.5,-0.7 -28.7,-1.1 l -7.6,-0.8 0.4,-35.6 c 0.3,-19.6 0.7,-37.6 0.9,-40.1 0.2,-2.5 0.4,-6.7 0.4,-9.4 l 0.1,-4.9 10.8,0.6 c 5.9,0.3 20.6,1.1 32.7,1.7 z m -58.1,80 c -0.2,4.7 -0.7,10.8 -0.9,13.6 l -0.5,5.1 3.8,0.6 c 2,0.4 9.1,1.1 15.7,1.7 6.6,0.6 12.4,1.5 12.8,1.9 0.5,0.5 0.5,5.6 0.1,11.5 l -0.7,10.6 -4.7,0 c -5.8,0 -7.4,1.5 -6.5,6.3 0.4,1.9 0.7,8.4 0.8,14.5 l 0.2,11 -6,0.4 c -3.3,0.2 -6.4,0 -6.9,-0.4 -0.6,-0.4 -3.8,-0.8 -7.3,-0.8 l -6.2,0 0.5,-3.3 c 1.6,-9.3 2.6,-13.1 4.4,-16.7 2.5,-4.9 2.5,-7.2 0,-9.5 -4.5,-4.1 -14.9,0.6 -18.5,8.4 -2,4.5 -3.2,5.1 -4.3,2.3 -1.3,-3.2 -13.1,-21.8 -15.6,-24.5 l -2.3,-2.5 2.6,-0.6 c 1.4,-0.3 7.6,-0.8 13.6,-1.2 6.2,-0.4 11.7,-1.2 12.5,-1.9 0.8,-0.6 2.3,-1.5 3.3,-1.8 2,-0.7 2.2,-3.7 0.7,-9.9 -3.3,-14 -6,-26.1 -6,-27.3 0,-1.1 1.9,-1.5 7.3,-1.7 l 7.2,-0.3 0.7,3 c 0.4,1.6 0.5,6.8 0.2,11.5 z m 55,24.1 c 5.2,0 7,0.9 4.6,2.4 -1.9,1.2 -6,10.4 -6,13.5 0,4.6 6.6,10.5 14.4,12.9 4.3,1.3 6.2,2.4 6.4,3.7 0.3,1.8 -0.6,1.9 -13.5,1.9 -14.6,0.1 -19.7,0.8 -19,2.8 0.5,1.6 36,1.3 36.5,-0.3 0.2,-0.6 -0.2,-1.7 -0.8,-2.6 -1.8,-2.1 -0.6,-2.7 3.5,-2 3.4,0.7 3.5,0.8 3.5,5.6 l 0,5 -3.7,0.1 c -2.1,0.1 -10.3,0.3 -18.3,0.4 -8,0.1 -19.8,0.3 -26.3,0.4 -6.6,0.1 -12.1,0 -12.3,-0.2 -0.3,-0.3 -0.6,-4.7 -0.7,-9.8 l -0.2,-9.4 3.3,-0.3 c 3.4,-0.3 3.7,0.2 3.2,6.9 -0.2,3.2 3.1,5.9 7.2,5.9 3.7,0 3.6,-1.5 -0.2,-2.9 -2.3,-0.7 -3,-1.6 -3,-3.5 0,-2.2 0.5,-2.5 4.2,-2.8 4.5,-0.3 6.7,-2.8 2.4,-2.8 -1.3,0 -3.5,-0.4 -4.8,-0.9 -2.3,-0.8 -2.3,-1.1 -1.7,-9.7 0.4,-4.9 0.8,-10.4 0.8,-12.3 l 0.1,-3.3 7.4,0.7 c 4,0.3 9.8,0.6 13,0.6 z m -87.7,2.5 c -0.3,0.3 -1.2,0.4 -1.9,0.1 -0.8,-0.3 -0.5,-0.6 0.6,-0.6 1.1,-0.1 1.7,0.2 1.3,0.5 z m -4,1 c -0.3,0.3 -1.2,0.4 -1.9,0.1 -0.8,-0.3 -0.5,-0.6 0.6,-0.6 1.1,-0.1 1.7,0.2 1.3,0.5 z m -13.8,5 c -1.7,1.6 -1.5,3.1 1,13.9 1.1,4.5 1.6,4.9 -5.2,-4 -4.3,-5.4 -6.7,-6.2 -11.6,-3.8 l -4.1,2 0,-2.3 c 0,-1.8 0.6,-2.4 2,-2.4 1.2,0 3.5,-0.8 5.3,-1.7 3.1,-1.6 8.2,-3 12.2,-3.2 1.8,-0.1 1.8,0 0.4,1.5 z m -60.19998,8 c -0.3,0.3 -1.2,0.4 -1.9,0.1 -0.8,-0.3 -0.5,-0.6 0.6,-0.6 1.1,-0.1 1.7,0.2 1.3,0.5 z m -6,1 c -0.3,0.3 -1.2,0.4 -1.9,0.1 -0.8,-0.3 -0.5,-0.6 0.6,-0.6 1.1,-0.1 1.7,0.2 1.3,0.5 z m 52.19998,16.9 c 1.7,3 3.1,5.7 3.1,6.1 0,1.4 -6.4,-4.9 -6.5,-6.4 -0.1,-1 -0.5,-2.8 -0.9,-4.1 -1.3,-3.9 0.9,-1.6 4.3,4.4 z m 162.1,0.2 c 0,3.6 -6.4,21 -8.5,23.1 -0.2,0.2 -1.2,-0.2 -2.3,-0.9 -1.8,-1.2 -1.9,-1.4 -0.5,-2.5 1.2,-0.8 1.7,-3.1 1.9,-8 0.3,-9.9 1.4,-12.2 5.8,-12.2 2,0 3.6,0.2 3.6,0.5 z m -13.5,14.8 c 0,1.7 -0.7,2 -4.5,2.2 -10.7,0.5 -43.1,0.9 -50.1,0.5 -7.2,-0.3 -7.6,-0.5 -7.2,-2.5 l 0.4,-2.2 30.7,0 c 30,0 30.7,0 30.7,2 z" />
  <path
     style="fill:#000000;stroke:none"
     d="m 1007.455,131.33532 c -1.8,2.3 -2.9,6.4 -1.7,6.4 0.4,0 5.6,-7.8 5.6,-8.5 0,-1.3 -2.1,-0.2 -3.9,2.1 z" />
  <path
     style="fill:#000000;stroke:none"
     d="m 942.85502,172.73532 c -0.4,0.6 0.5,2 1.9,3.1 3.3,2.6 5.6,7 5.6,10.7 0,2.7 -0.4,3 -4,3.6 -2.8,0.4 -4,1.1 -4,2.2 0,2.3 8.9,1.3 10.7,-1.2 1.9,-2.6 1.6,-7.4 -0.8,-11.4 -4.1,-6.9 -7.8,-9.6 -9.4,-7 z" />
  <path
     style="fill:#000000;stroke:none"
     d="m 938.95502,199.43532 c -0.1,0.2 -2.9,0.4 -6.2,0.4 -9.1,0.2 -14.4,3.9 -14.4,10 0,2.1 0.5,4.1 1.1,4.4 0.6,0.4 4.7,0.1 9.1,-0.6 7.2,-1.2 8.7,-1.1 14.7,0.5 13.1,3.6 15.1,3.1 15.1,-4.1 0,-3.1 -0.7,-4.6 -3,-6.8 -2.6,-2.5 -4.2,-3.1 -9.6,-3.5 -3.6,-0.3 -6.6,-0.4 -6.8,-0.3 z m 9.3,6.8 c 1.7,2 3.1,4.5 3.1,5.5 0,2.4 0.6,2.4 -6,-0.1 -5.4,-2.1 -8,-2.1 -20.8,-0.5 -4.1,0.5 -5.3,-1.6 -2.7,-4.5 2.5,-2.7 6.7,-3.7 15.6,-3.8 7.6,-0.1 7.7,-0.1 10.8,3.4 z" />
  <path
     style="fill:#000000;stroke:none"
     d="m 997.35502,178.03532 c 0,2.1 1.2,2.8 2.69998,1.6 1.9,-1.6 1.6,-2.9 -0.69998,-2.9 -1.1,0 -2,0.6 -2,1.3 z" />
  <path
     style="fill:#000000;stroke:none"
     d="m 913.75502,252.43532 c 2,9.7 2.3,22.1 1.6,58.8 -0.4,23.7 0.5,54.4 1.9,62 0.7,3.8 1,8.9 0.6,11.2 -0.7,4.9 1,6.7 2.5,2.7 0.8,-1.9 0.6,-6 -0.5,-14.5 -0.8,-6.5 -1.5,-18.4 -1.6,-26.6 -0.1,-8.1 -0.2,-21.1 -0.2,-28.8 -0.1,-7.7 0,-21.2 0.3,-30 0.5,-14.5 -0.8,-31.1 -2.6,-36 -1,-2.6 -2.6,-1.6 -2,1.2 z" />
  <path
     style="fill:#000000;stroke:none"
     d="m 921.35502,281.13532 c 0,3.8 0.4,5.5 1.5,6 3.5,1.3 5,-8.5 1.6,-10.4 -3,-1.5 -3.1,-1.4 -3.1,4.4 z" />
  <path
     style="fill:#000000;stroke:none"
     d="m 921.55502,318.63532 c -1.3,3.8 -0.5,7.3 1.7,6.9 2.2,-0.4 2.9,-9.8 0.8,-9.8 -0.8,0 -2,1.3 -2.5,2.9 z" />
  <path
     style="fill:#000000;stroke:none"
     d="m 923.49644,359.68091 c 0,2.4473 1.55858,5.95441 3.65858,3.85441 0.7,-0.7 1.2,-2.1 1.2,-3.3 0,-1.9 -3.22065,-5.79787 -4.07574,-5.10589 -1.57279,1.27279 -0.78284,2.82427 -0.78284,4.55148 z" />
  <path
     style="fill:#000000;stroke:none"
     d="m 859.85502,344.63532 c 0.3,0.5 -0.1,1.1 -0.7,1.4 -0.7,0.2 -1,0.8 -0.6,1.2 0.9,0.9 3.8,-0.1 3.8,-1.4 0,-0.5 -0.7,-1.2 -1.6,-1.5 -0.8,-0.3 -1.3,-0.2 -0.9,0.3 z" />
  <path
     style="fill:#000000;stroke:none"
     d="m 1035.855,426.73532 c -2,0.7 -18.3,4 -30.5,6 -3,0.5 -11.09998,1.7 -17.99998,2.5 -6.9,0.9 -18.6,2.7 -26,4.1 -18.5,3.5 -21.9,4.1 -34,5.8 -5.8,0.9 -11.6,1.8 -13,2 -1.4,0.3 -4,0.5 -5.8,0.5 -1.8,0.1 -3.1,0.5 -2.8,0.9 0.2,0.4 -2.5,0.9 -6.1,1 -3.7,0.2 -7,0.5 -7.4,0.8 -0.9,0.5 -0.7,1.8 1.1,8.4 0.7,2.5 1.6,6.1 2.1,8 0.4,1.9 1.7,7.1 2.8,11.5 1.2,4.4 3.3,13.6 4.7,20.5 1.4,6.9 3.4,16.1 4.4,20.5 1.1,4.4 2.2,9.8 2.6,12 0.3,2.2 1,4.8 1.5,5.7 0.5,0.9 1,3.5 1.1,5.8 0.1,2.2 0.7,4.8 1.3,5.7 1.1,1.4 1.5,1.4 4.1,-0.5 3.7,-2.7 7.3,-3.6 26.9,-6.6 8.8,-1.4 17.2,-2.8 18.6,-3.1 1.5,-0.3 16.1,-2.5 32.5,-5 16.49998,-2.6 35.49998,-5.5 42.39998,-6.5 13.2,-2 23,-4.5 23,-5.9 0,-0.4 -0.4,-2.1 -0.9,-3.7 -1.5,-4.9 -5.8,-24.9 -9.6,-44.4 -1.9,-10.2 -4,-20.8 -4.5,-23.5 -0.6,-2.8 -1.7,-8.3 -2.5,-12.3 -2.2,-11 -3.2,-12.2 -8,-10.2 z m 3.8,4.7 c 0.6,3.5 7.1,33.5 9.1,42.3 0.8,3.6 1.7,9 2,12 0.4,3 2,11.7 3.7,19.4 2.2,9.8 2.7,14.1 1.9,14.6 -1.1,0.7 -24.8,4.6 -63.99998,10.5 -12.9,2 -24.4,3.8 -25.5,4 -1.1,0.3 -3.8,0.7 -6,1 -11.4,1.6 -40.3,6.7 -42.2,7.5 -1.8,0.7 -2.3,0.4 -3.1,-1.8 -1.9,-5 -4.1,-13.6 -7.6,-30.7 -1.9,-9.4 -4.6,-22 -6,-28 -2.7,-12.3 -5.6,-26.7 -5.6,-28.2 0,-1.2 9.6,-3.2 32.9,-6.8 9.1,-1.4 16.8,-2.8 17.2,-3 0.4,-0.3 4.2,-1 8.5,-1.5 4.4,-0.6 15.1,-2.4 23.9,-4.1 13.6,-2.5 55.59998,-9.5 59.09998,-9.8 0.7,-0.1 1.4,1.1 1.7,2.6 z" />
  <path
     style="fill:#000000;stroke:none"
     d="m 230.79052,94.335324 c -0.7,1.3 -1.9,1.6 -4.8,1.1 -2.2,-0.3 -4.7,-0.8 -5.6,-1.2 -1.1,-0.4 -2.3,0.1 -3.5,1.4 -0.9,1.2 -2.5,2.1 -3.4,2.1 -0.9,0 -2.2,0.7 -2.9,1.5 -0.7,0.799996 -1.8,1.499996 -2.5,1.499996 -0.7,0 -3.7,2.4 -6.7,5.4 -2.9,2.9 -6.2,5.5 -7.2,5.7 -1,0.2 -2.2,1.1 -2.6,1.9 -0.4,0.8 -1.4,2.8 -2.2,4.5 -0.9,1.6 -1.9,5.2 -2.2,7.8 -0.4,2.7 -1.3,5 -2.1,5.3 -0.7,0.3 -2,2.4 -2.9,4.7 -1.4,3.7 -1.4,5 -0.2,10.7 l 1.4,6.5 -3.3,2.8 c -1.9,1.5 -3.9,4.3 -4.5,6.3 -3.4,10.1 0.7,18.6 10.2,21.5 3.2,1 3.9,1.8 4.4,4.7 0.9,4.4 -0.2,14.8 -1.9,18.1 -3.4,6.9 1.6,20.1 11.1,29.5 7,6.9 16,14.6 17,14.6 0.4,0 1.3,-1.2 2,-2.8 2.5,-5.5 6.1,-11.8 8.4,-14.6 l 2.4,-2.9 1.8,4.8 c 1.3,3.4 2.1,4.3 2.7,3.4 0.6,-1 0.9,-1.1 0.9,-0.2 0,0.7 1.2,1.3 2.6,1.3 2.5,0 2.6,-0.2 2,-4.2 -0.6,-3.8 -0.6,-4 1.1,-2.7 3.2,2.4 5.3,5.3 6.3,9 0.6,2.3 1.8,3.9 3,4.2 4.7,1.2 14,-16 14,-25.9 l 0,-4.4 4.3,0.6 c 5,0.7 10.8,2.3 12.2,3.4 1.2,1 11.9,5.1 22.2,8.5 4.9,1.7 8.3,2.3 10.4,1.8 4.6,-0.9 23.1,-10.5 29.3,-15.1 8.6,-6.5 8.9,-6.6 12.3,-2.9 6.4,7 13.8,18.9 13,21.1 -0.8,2.1 -22.4,19.7 -29.2,23.8 -8.9,5.3 -13.4,7 -19.2,7 -5,0 -23.2,-3.7 -26.3,-5.2 -0.8,-0.5 -1.9,-3.8 -2.6,-8 -1.2,-6.9 -2.6,-10.1 -4,-8.8 -0.3,0.4 0,3 0.6,6 1.4,6.3 0.9,16.4 -1.2,23.3 -5.9,19.3 -6.7,25.9 -6.8,56.2 l 0,14.2 -3.4,2.6 c -5.8,4.4 -28.8,7.6 -37.7,5.2 -2.6,-0.7 -2.6,-0.7 -2.7,-11.4 -0.1,-6 -0.3,-12.5 -0.5,-14.7 -0.3,-2.1 -0.1,-8.6 0.3,-14.5 0.5,-5.8 0.4,-14.2 -0.1,-18.6 -0.6,-6 -0.5,-10.4 0.6,-17.4 1.4,-8.7 1.4,-15.1 -0.1,-24.9 -1.1,-6.9 -2.1,-2.6 -2,8.5 0.1,6.5 -0.4,14.8 -1.1,18.4 -0.7,4.5 -0.8,9.2 -0.2,14.5 0.5,4.7 0.5,12.9 0,20.4 -0.6,6.9 -0.7,15.6 -0.3,19.5 0.4,3.8 0.6,9.7 0.4,13 l -0.4,6 -13.5,0.3 c -12,0.2 -14.4,-0.1 -22.1,-2.4 -11.96056,-4.36338 -17.1025,-7.98658 -17.81972,-6.55634 0,0 6.11972,6.35634 6.61972,6.65634 0.6,0.3 1,3.3 1,6.6 0,4.6 0.3,5.9 1.5,5.9 1.1,0 1.5,-1.2 1.5,-4.9 0,-5.8 1.5,-7.5 3.1,-3.4 0.8,2 0.7,3.9 -0.1,6.6 -0.6,2 -0.9,4.1 -0.6,4.6 0.3,0.4 2.6,1.4 5.2,2.1 l 4.6,1.3 -4.9,1.9 c -2.6,1 -6.4,2.1 -8.3,2.4 -6.1,1 -7,1.5 -8.5,4.3 -1.3,2.5 -1,4.5 2.6,22.2 2.2,10.7 4.9,23.9 6,29.4 1.1,5.5 2.7,12.6 3.6,15.8 0.9,3.2 1.27162,6.21354 1.32576,6.75545 -0.53101,0.11879 -24.62576,0.64455 -41.02576,-0.0555 -6.3,-0.3 -11.9,-0.3 -12.5,0.1 -1.5,0.9 -72.699992,-0.3 -94.999992,-1.7 -10.3,-0.6 -20.4,-0.4 -24.6,0.5 -0.4,0 -1.2,1.4 -1.9,3.1 -0.9,2.2 -1,6.6 -0.5,16.7 0.7,13 0.9,13.9 3.4,16.4 1.4,1.5 5.4,5.6 8.8,9.1 l 6.2,6.3 c 0.101072,1.49922 0.681166,93.54415 0.530985,95.32218 0,0 3.642593,0.24102 4.430635,0.17782 -0.152174,-1.66963 -1.462057,-53.88285 -1.444719,-54.37043 0.297288,0.24439 27.085841,30.54688 29.094368,31.97325 -0.374243,4.22576 -0.484849,20.39698 -0.480928,22.39718 0.732322,0.11354 2.299094,-0.0284 2.837479,0.0249 l -0.208427,-20.65763 12.307378,10.94142 0.203532,9.70172 2.862426,-0.004 -0.03273,-7.40677 7.6,7.4 2.854734,0.006 -56.795341,-58.32765 c 0,0 0.04382,-32.6271 0.140607,-33.67877 1.600902,1.60186 101.271373,89.67087 103.653513,91.42958 1.72113,0.0549 1.54648,-1.02958 1.54648,-2.32958 0,-0.5 -1.6,-2.1 -3.5,-3.5 -2,-1.5 -4.5,-3.7 -5.8,-5 -1.2,-1.2 -5.3,-4.9 -9.1,-8.2 -3.8,-3.2 -8.8,-7.6 -11,-9.7 -2.3,-2.1 -6.29999,-5.7 -8.99999,-8 -2.7,-2.3 -9.200003,-8 -14.500003,-12.7 -5.3,-4.7 -11.5,-10 -13.6,-11.8 -2.2,-1.8 -7.6,-6.8 -12,-11 -4.4,-4.3 -11.1,-10.4 -15,-13.7 -3.8,-3.3 -8.3,-7.5 -10,-9.4 -1.6,-1.8 -6.9,-7.4 -11.7,-12.4 l -8.7,-9.1 -0.2,-9.8 c -0.1,-5.4 0.1,-10.2 0.5,-10.5 0.3,-0.3 2,1 3.8,2.9 1.8,1.9 5.8,5.6 8.8,8.2 3,2.7 10,9.2 15.5,14.5 5.5,5.3 13.8,13.2 18.5,17.6 4.7,4.3 11.4,10.6 15,13.9 3.6,3.4 11.6,10.8 17.900003,16.6 6.3,5.8 12.39999,11.4 13.59999,12.5 1.7,1.6 16.7,15.1 29.9,26.9 11.8,10.5 21.6,18.6 22.5,18.6 0.6,0 1.6,0.9 2.3,2 0.7,1.1 2.1,2 3,2 1,0 1.8,0.4 1.8,1 0,0.5 0.8,1 1.7,1 1.2,0 0.2,-1.4 -2.8,-4.3 -7.7,-7.2 -17.7,-15.7 -18.5,-15.7 -0.4,0 -3.5,-2.6 -6.9,-5.7 -3.3,-3.2 -9.6,-9 -13.9,-12.8 -15.3,-13.8 -21.2,-19.1 -36.599993,-33.5 -6.9,-6.4 -18.1,-16.8 -25,-23 -29.3,-26.5 -49.2,-45.9 -48.7,-47.4 0.2,-0.5 1.7,-1.4 3.3,-1.8 2.6,-0.8 43.8,-0.3 59.9,0.7 3.3,0.2 25.999993,0.6 50.499993,1 18.47253,-0.97947 54.99178,0.22846 56.84192,0.1895 l 2.55808,12.6105 c 1.5,7.8 3,15.3 3.3,16.7 0.3,1.4 0.5,3.1 0.4,3.7 -0.4,2.4 3.1,1.8 25.4,-4.5 8.9,-2.5 36.6,-9.2 38.1,-9.2 0.7,0 1.2,1 1.2,2.2 0,1.3 0.4,4.6 0.9,7.5 1.2,6.3 1.3,6.3 -11.2,7 -9.4,0.6 -11.1,1.4 -9.3,4.7 0.6,1.1 0.8,4.5 0.5,7.8 -0.5,5.6 -0.4,5.9 2.6,8 1.8,1.2 6.1,4.5 9.7,7.4 3.6,2.8 9.2,6.8 12.5,8.7 3.3,2 7,4.5 8.2,5.6 2.2,2 2.7,2.1 11.5,1.1 5.1,-0.6 11.4,-1.5 14.1,-1.9 4.3,-0.7 4.7,-0.6 4.7,1.2 0,1.7 0.4,1.9 3.3,1.3 1.7,-0.4 6.2,-1 9.9,-1.3 l 6.7,-0.6 1.8,3.2 c 1,1.8 3.6,5.9 5.8,9.2 2.2,3.3 5.4,8.3 7.2,11.2 l 3.2,5.1 12.2,0 12.1,0.1 1.7,6.5 c 2.1,8.3 5.6,14.4 11.9,20.2 11,10.3 19.5,11.5 32.1,4.7 8.3,-4.5 17.8,-13.4 21,-19.6 3,-5.9 5.4,-8.3 7.8,-7.7 1.4,0.4 2.6,-0.1 3.6,-1.7 1.9,-2.6 1.9,-2.7 4.2,8.6 1,4.9 1.5,11.2 1.3,16.3 -0.2,5.9 0,8.2 0.9,8.2 1.9,0 2.2,-1.1 2.4,-9.1 0.1,-5 -0.6,-11 -2.3,-18.5 -2.8,-12.3 -2.8,-12 3.2,-19.4 2.1,-2.5 6,-8.8 8.8,-14 12.2,-23 12.8,-39.6 1.7,-51.8 -2.6,-3 -4.8,-4.3 -8.5,-5.2 -2.8,-0.7 -5,-1.5 -5,-2 0,-0.9 14.9,-6.2 25.5,-9.1 9.7,-2.5 31.4,-3.5 45.5,-2 5.2,0.5 12.2,1.2 15.5,1.5 5.5,0.5 11.9,2.3 20.1,5.7 3.7,1.5 5.6,6.4 7.5,19.7 1.3,9.1 3.7,11.7 3,3.2 -0.2,-2.3 -2.2,-12.2 -3.2,-15.3 -0.4,-1.5 -0.5,-2.7 -0.1,-2.7 0.7,0 6.6,6.5 13.7,15 4.3,5.2 5.5,5.9 5.5,3.3 0,-1 -3.3,-5.5 -7.3,-9.9 -4,-4.4 -8.5,-9.6 -10,-11.6 -2.4,-3.1 -4.2,-4.1 -12.5,-6.7 -5.3,-1.6 -11.8,-3.3 -14.4,-3.6 -5.3,-0.7 -5.8,-1.3 -2.8,-4 1.8,-1.6 2,-1.6 2,-0.2 0,1 0.5,1.7 1,1.7 0.6,0 1,-1.1 1,-2.5 0,-1.4 0.5,-2.5 1.1,-2.5 0.6,0 0.9,0.9 0.6,2 -0.3,1.1 -0.1,2 0.4,2 0.4,0 1.2,-1.4 1.7,-3.2 1.1,-4.3 1.7,-4.4 29.8,-4 l 23.2,0.3 5.3,5.4 c 5.2,5.3 8.9,7 8.9,4.2 0,-1.5 -8.9,-9.4 -13,-11.5 -1.8,-1 -7.4,-1.3 -21,-1.2 -27.3,0.3 -25.1,0.8 -18.7,-4.5 9.6,-7.8 20.9,-28 24.3,-43.6 0.9,-4.1 2.1,-9.4 2.6,-11.9 0.5,-2.5 1,-10.1 1.1,-17 l 0.2,-12.5 -5.2,-10.5 c -6.7,-13.3 -6.6,-13.2 -14,-21 -5.1,-5.4 -8.3,-7.6 -18.5,-12.8 -8.3,-4.2 -14.7,-6.8 -19.6,-7.8 -9.9,-2 -20.7,-2 -26.2,0.1 -2.5,0.9 -6.1,2 -8,2.4 -5.6,1.2 -9.4,3.6 -14.9,9.6 -4.1,4.6 -5.5,7.1 -7.4,13.2 l -2.2,7.5 -10,-0.6 c -11.7,-0.8 -33.3,-2.5 -39,-3.1 -12.6,-1.5 -34.2,-3.5 -37.1,-3.5 -2.8,0 -3.4,0.4 -4.4,3.6 -0.7,2 -1.2,7.7 -1.1,12.8 0.1,5 -0.5,18.1 -1.4,29.1 -2,26.1 -2.7,29.8 -3.9,20.8 -0.4,-2.6 -1.5,-9.5 -2.6,-15.3 -2.2,-11.9 -5.6,-33.8 -6.5,-42 -1,-8.2 -2.4,-11.3 -4.9,-10.6 -6.5,1.6 -15.9,3.8 -21.6,5 -9.8,2.1 -38.3,8.3 -49,10.6 -14.2,3.1 -14.2,3.1 -13.6,2.2 0.3,-0.5 0.7,-13.2 1,-28.4 l 0.5,-27.6 4.2,-14.3 c 2.3,-7.9 4.3,-14.6 4.5,-14.8 0.2,-0.2 4.9,0.6 10.6,1.7 5.7,1.1 13.2,2.3 16.8,2.7 6.5,0.6 6.6,0.6 16.2,-4.8 5.3,-3 11.2,-6.7 13.1,-8.3 5,-4.2 15.7,-13 19,-15.6 1.6,-1.3 6.1,-5.6 10,-9.6 6,-5.9 7.8,-7.2 10.4,-7.2 4,0 9.5,-4.6 11.9,-9.9 1.3,-2.9 2.7,-4.2 6.1,-5.6 2.4,-1 6.4,-3.6 8.9,-5.8 3.8,-3.3 4.4,-4.4 4.4,-7.8 0,-5 -3.6,-7.9 -7.6,-6 -4.1,1.8 -3.9,1.3 1,-3.2 4.7,-4.4 5.6,-7 3.5,-10.8 -1.6,-3 -4.9,-3.9 -8.6,-2.3 -3.7,1.5 -3.9,1.3 -1.7,-2.1 1.9,-3 1.1,-6.2 -2.1,-7.7 -4,-1.8 -14.8,5.3 -20.9,13.7 -1.6,2.3 -2,1.7 -3,-4.6 -0.9,-5.3 -5,-9.1 -9.5,-8.7 -3.6,0.3 -3.6,0.4 -3.5,4.8 0,2.5 0.3,5.8 0.5,7.4 0.3,1.6 0,6.3 -0.7,10.4 -0.8,4.1 -1.3,7.7 -1.2,8.1 0,0.3 0,1.4 -0.1,2.5 -0.1,1.6 -0.3,1.7 -1.7,0.5 -1.4,-1.2 -2.5,-0.4 -8.8,6.2 -11.1,11.7 -29.1,23 -39.4,24.9 -6.6,1.1 -10.3,0.2 -29.4,-7.3 -6.5,-2.6 -13.3,-4.7 -15.3,-4.7 -4.2,0 -4.5,-1 -0.7,-3.2 9.9,-5.9 17.3,-16.8 18.7,-27.4 1,-7.2 -1.5,-14.2 -6.4,-18.7 -3.4,-3 -3.9,-4 -3.9,-8.1 -0.1,-2.6 -0.5,-5.2 -0.9,-5.9 -1,-1.5 -2,-14.7 -1.2,-14.7 1.3,0 2,-3.5 2.5,-11.9 0.5,-7.5 0.3,-8.5 -1.5,-10.2 -1.2,-1.1 -2.1,-2.6 -2.1,-3.4 0,-0.7 -0.9,-1.6 -1.9,-2 -1.1,-0.3 -2.2,-1.2 -2.5,-2 -0.3,-0.8 -1.2,-1.5 -2.1,-1.5 -1.7,0 -16.7,-7.099996 -18.9,-8.899996 -0.7,-0.6 -2.4,-1.1 -3.7,-1 -1.3,0 -4.4,-0.4 -6.9,-1 -6.2,-1.4 -6.8,-1.3 -7.8,0.5 z m 8.2,2.8 c 1.1,-0.4 2.2,0 3,1.2 1.2,1.6 1.6,1.699996 3.1,0.4 1.5,-1.3 1.9,-1.2 3.4,0.5 0.9,1.099996 2.5,1.899996 3.7,1.699996 1.4,-0.2 2.3,0.3 2.7,1.7 0.3,1.4 1.1,1.8 2.6,1.4 1.6,-0.4 2.1,-0.1 2.1,1.6 0,1.1 0.5,2.1 1,2.1 0.6,0 1,-0.5 1,-1 0,-0.6 0.7,-1 1.5,-1 0.8,0 1.5,0.6 1.5,1.4 0,0.9 0.7,1.2 2,0.9 1.1,-0.3 2,0 2,0.6 0,0.6 1.1,1.7 2.5,2.3 1.4,0.6 2.4,1.6 2.2,2.2 -0.3,0.6 0.5,2.1 1.6,3.3 1.6,1.8 1.8,2.5 0.8,3.7 -1,1.1 -0.9,1.9 0,3.4 1,1.6 1,2.3 0,3.6 -1.7,2 -4.1,2.1 -4.1,0.1 0,-1.3 -0.4,-1.4 -2,-0.5 -2.1,1.1 -2.4,0.8 -2.1,-2.3 0.2,-1.1 -0.5,-1.7 -1.8,-1.7 -1.2,0 -2.1,-0.7 -2.1,-1.5 0,-1.8 -2.6,-2 -3.3,-0.3 -0.4,1 -0.8,1 -1.5,-0.1 -0.9,-1.2 -1.3,-1.2 -2.6,-0.2 -0.9,0.8 -1.7,1.1 -1.7,0.7 -0.1,-0.3 -0.2,-1 -0.3,-1.5 -0.3,-2.1 -1.5,-2.2 -2.8,-0.2 -0.7,1.2 -2.3,2.1 -3.6,2.1 -1.3,0 -2,-0.4 -1.7,-1 0.6,-1 -3.3,-5.9 -4.7,-6 -0.5,0 -0.8,0.9 -0.8,1.9 0,2.1 -2.6,3.6 -3.5,2.1 -1.1,-1.8 -2.5,-1 -2.5,1.4 0,3.2 -2.8,5.6 -4.1,3.5 -0.7,-1.1 -1.2,-1 -2.8,1 -1.4,1.9 -2.4,2.3 -4.8,1.8 -2.2,-0.4 -3.2,-0.1 -4.1,1.4 -0.9,1.3 -1.9,1.8 -3.2,1.4 -1.4,-0.4 -2.2,0.1 -3.2,2.2 -1.1,2.3 -2,2.8 -5.2,2.8 -3.1,0 -4.1,0.5 -4.7,2.3 -0.5,1.2 -1.5,2.2 -2.3,2.2 -0.7,0 -1.7,1.1 -2,2.5 -0.4,1.4 -1.1,2.5 -1.6,2.5 -0.6,0 -1,0.8 -1,1.7 -0.1,3.8 -5,7.4 -5,3.7 0,-1.4 -0.3,-1.4 -1.5,-0.4 -0.67293,2.97071 -1.8,1 -2.1,0.7 -0.3,-0.3 -1.52676,-0.35775 -0.42676,-1.05775 0.75352,-1.72112 1.49577,-1.25493 0.18028,-2.77746 -1.1,-0.3 -2,-0.4169 -2,-1.2169 0,-0.8 0.88592,-3.08592 -0.0141,-3.08592 -1.4,0 -1.33944,-1.56479 -0.33944,-2.26479 0.9,-0.5 1.1,-0.89718 0.6,-2.79718 -0.6,-2.6 -0.5,-2.7 1.7,-2.2 1.9,0.5 2.6,0.1 3.6,-1.8 0.6,-1.5 0.7,-2.7 0.2,-3.1 -0.5,-0.3 -0.9,-1 -0.9,-1.5 0,-0.6 0.4,-0.8 0.9,-0.5 0.5,0.3 1.4,-0.1 2,-0.8 1,-1.1 0.8,-1.6 -0.8,-2.1 -2.7,-0.8 -2.7,-3.5 -0.2,-3.5 2.3,0 4,-2.2 2.3,-2.8 -1.7,-0.5 -1.5,-2.9 0.4,-3.6 0.8,-0.3 2.7,-0.3 4.1,0.1 2.2,0.5 2.5,0.3 2,-1.1 -0.4,-1 -0.1,-1.9 0.8,-2.2 0.8,-0.4 1.5,-1.5 1.5,-2.7 0,-1.9 0.1,-2 2,-0.2 2,1.8 2,1.7 2,-1.2 0,-3.1 2.3,-5.2 3.5,-3.2 0.9,1.4 2.5,0.1 2.5,-2.2 0,-2.299996 1.3,-2.499996 3.1,-0.2 1.3,1.4 1.5,1.3 1.9,-1.3 0.4,-2.299996 1,-2.899996 3,-2.899996 1.8,0 2.4,0.5 2.2,1.7 -0.3,2.199996 0.6,2.199996 3.2,0.3 2.7,-2 3.3,-1.9 3.9,0.7 0.6,2.299996 1.9,1.899996 2.3,-0.8 0.1,-0.9 0.5,-2.3 0.8,-3.1 0.6,-1.4 0.8,-1.4 2.5,0.1 1,0.9 2.5,1.4 3.5,1 z m 11.1,26.499996 c 2.8,-0.1 6.8,0.1 9,0.4 2.2,0.3 4.3,0.6 4.8,0.6 0.4,0.1 0.7,0.8 0.7,1.6 0,0.9 1.3,2.4 3,3.3 1.6,0.9 3.4,2.6 3.9,3.7 1,2.2 2.3,12.5 1.5,12.5 -0.3,0 -1.6,-0.7 -3,-1.6 -6.4,-4.2 -15.4,-0.5 -17.3,7.1 -1,4.1 -1.3,4.3 -5.3,4.7 -2.4,0.3 -5,0.8 -5.9,1.2 -1.1,0.5 -2.1,-0.5 -3.7,-3.6 -2.9,-5.9 -7,-8.2 -13.2,-7.4 -4.7,0.6 -11,3.1 -11,4.4 -0.1,0.4 -1,1.8 -2,3.1 -1.4,1.7 -2.4,2 -3.3,1.3 -0.6,-0.5 -2.8,-1.3 -4.7,-1.7 -7.4,-1.4 -7.1,-1 -4.8,-6.5 2,-4.9 7.6,-10 11,-10 0.9,0 2.6,-1.1 3.9,-2.5 1.3,-1.3 3.1,-2.5 4,-2.5 0.8,0 2,-0.5 2.7,-1.2 0.6,-0.6 2.2,-1.2 3.4,-1.4 3.9,-0.3 10.1,-3.1 11.8,-5.2 2,-2.5 6,-3.2 8,-1.5 0.9,0.7 3.8,1.2 6.5,1.2 z m 20.6,24.9 c 4.1,3.6 5,10.5 1.9,14 -4.1,4.8 -14.6,3.4 -17.2,-2.3 -0.6,-1.3 -0.8,-3.9 -0.4,-6 1.6,-8.3 9.6,-11.2 15.7,-5.7 z m -36.4,6.6 c 1.8,3.9 1.3,8.5 -1.6,13.3 -2.7,4.4 -7,5.2 -13.1,2.3 -4.4,-2.1 -4.9,-2.6 -5.5,-6.5 -0.7,-5.3 1.3,-10.8 4.7,-12.6 6.8,-3.6 12.7,-2.3 15.5,3.5 z m -42.8,0.5 c 0.8,0.5 0.9,1.1 0.3,1.5 -0.5,0.3 -1.5,-0.1 -2.2,-0.9 -1.4,-1.6 -0.3,-2 1.9,-0.6 z m 15.3,2.6 c 0.9,0.4 2,2.1 2.4,3.8 2.1,9.9 8.8,15.5 17.2,14.3 6.1,-0.8 10,-4 12.8,-10.2 3.3,-7.5 7.5,-9.3 12.4,-5.3 1.7,1.4 2.1,2.2 1.3,2.6 -2.2,0.8 -1.5,2.4 3.2,7.4 2.5,2.6 4.5,5.5 4.5,6.2 0,1.8 -2.6,4.1 -3.8,3.3 -1.2,-0.7 -3.5,1.8 -2.5,2.7 0.3,0.4 2.2,0.7 4,0.7 2.9,0 3.6,-0.5 4.7,-3.2 0.9,-2.1 1.1,-4.1 0.5,-6.2 -0.5,-1.7 -0.9,-3.2 -0.9,-3.3 0,-0.2 1.3,-0.3 2.9,-0.3 4,0 7.5,-1.4 9.8,-4 l 2,-2 2.6,2 c 5.5,4.4 6.5,16.4 2.1,25.5 -2.8,5.7 -9.3,12.5 -15.5,16.3 -5.8,3.5 -12.5,5.1 -24.5,5.8 -9.1,0.6 -12,0.4 -16.3,-1.1 -3.8,-1.2 -5.6,-1.4 -6.4,-0.6 -1.8,1.8 8.8,6.1 15.1,6.1 6.2,0 6.1,1 -0.6,4.4 -4.6,2.3 -4.8,2.3 -9.8,0.6 -5.5,-1.8 -12.5,-5.9 -21.4,-12.6 -9.2,-6.9 -9.1,-6.8 -9.7,-19.9 l -0.6,-11.6 -2.8,0.6 c -3.4,0.8 -8.2,-1.6 -10.5,-5.1 -2,-2.9 -2.2,-10.5 -0.4,-13.8 0.7,-1.3 2.2,-2.9 3.5,-3.6 3,-1.6 7.8,0.8 9.5,5 1.5,3.6 3,3.9 3,0.6 0,-1.4 0.5,-2.8 1,-3.1 0.6,-0.3 0.7,-1.7 0.4,-2.9 -0.6,-2.3 -0.5,-2.3 4.3,-1.1 2.6,0.7 5.6,1.6 6.5,2 z m 167.3,8 c 2,1.9 2.5,3.4 2.5,7.3 0,3.7 0.7,6 3.1,9.7 2.9,4.5 3.1,5.4 2.5,10.7 -0.4,4.5 -0.3,5.8 0.8,5.8 2.9,0 3.4,-9.7 0.7,-15.5 -1.8,-4 -1.8,-4 0.7,-8 3.9,-6.3 12.4,-12.5 17.2,-12.5 3.6,0 3.1,0.9 -7.2,12.4 -1,1.1 -1.8,2.2 -1.8,2.5 0,0.3 -0.4,1.2 -0.9,2 -0.8,1.2 -1.2,1.2 -2.4,0.2 -2.3,-1.8 -3.3,0.6 -1.2,2.9 1.3,1.4 6.5,14.7 6.5,16.6 0,0.2 -1.9,0.4 -4.3,0.4 -3.9,0 -6.7,1.3 -6.7,3.1 0,0.4 1.5,0.2 3.4,-0.3 2.6,-0.8 4,-0.7 6.5,0.5 2.6,1.3 3.3,1.3 3.7,0.3 0.6,-1.5 -2,-12.2 -4.1,-17.4 -1.1,-2.5 -1.1,-3.2 -0.1,-3.2 0.7,0 2.5,-1.4 4.1,-3 3.6,-3.8 10.7,-8 13.3,-8 2.3,0 3.4,2.2 2.4,4.9 -0.4,1 -3.1,3.7 -6,6 -9.3,7.4 -9.7,13 -0.7,8.6 7,-3.4 9.5,-3.3 9.5,0.4 0,2.2 -1,3.6 -4.6,6.4 -2.6,2 -6.6,4.4 -9,5.3 -2.4,0.9 -4.4,2.2 -4.4,2.8 0,0.7 -1.3,3.3 -2.9,5.8 -2.3,3.6 -3.9,5 -7.1,5.9 -4.6,1.4 -5.4,0.8 -8.9,-6.6 -1,-2.2 -3.5,-5.6 -5.5,-7.4 -2,-2 -3.6,-4.5 -3.6,-5.7 0,-1.3 -0.5,-2.6 -1.1,-3 -0.8,-0.5 -0.9,-2.7 -0.4,-7.3 1.1,-8.6 1.1,-17.8 0.1,-21.9 -0.8,-2.9 -0.6,-3.2 1.3,-3.2 1.2,0 3.3,1.1 4.6,2.5 z m -5.5,37.1 c 5.1,4.9 11,14.2 11,17.4 0,1.2 -7.9,10 -8.9,10 -0.4,0 -1.2,-1.5 -1.9,-3.3 -0.7,-1.8 -2,-4.2 -3,-5.3 -1,-1 -3.3,-4.2 -5.2,-6.9 -1.9,-2.8 -4.2,-5.6 -5.3,-6.4 -1.8,-1.3 -1.8,-1.5 1.1,-4.5 1.6,-1.7 3.2,-3.9 3.5,-4.9 1,-2.7 2.5,-2.1 8.7,3.9 z m -175,4.2 c 0,0.5 2,2.3 4.5,4.1 2.4,1.7 5.1,3.8 5.8,4.6 2.6,2.5 16.9,10.8 19.8,11.4 l 2.9,0.6 -2.3,3.4 c -2.3,3.5 -2.6,4.1 -6.5,10.4 l -2.4,3.7 -7.2,-5.9 c -8.3,-6.8 -11.7,-10.9 -15.1,-18.3 -2.3,-5 -3.3,-12.7 -1.8,-14.1 0.9,-1 2.3,-0.9 2.3,0.1 z m 67,12.7 c 0,5.6 -3.2,14.2 -7,19 l -3,3.8 -2,-4.6 c -1.8,-4.1 -6.4,-8.7 -11.2,-11.3 -2.8,-1.5 4.2,-6.3 13.1,-9 10.3,-3.1 10.1,-3.1 10.1,2.1 z m -26.6,9.1 c 1.1,0.4 1.3,1.2 0.6,2.9 -0.5,1.3 -0.6,2.6 -0.3,2.9 0.4,0.3 0.1,0.6 -0.5,0.6 -0.7,0 -1.2,-0.1 -1.2,-0.3 0,-0.1 -0.4,-1.7 -0.9,-3.5 -1,-3.2 -0.6,-3.7 2.3,-2.6 z m 300.1,80 c 13.2,2.5 29.6,11.5 38.6,21.1 7.1,7.7 14.2,21.3 16,30.9 3.7,19.5 -5.9,55.5 -19.2,72.4 -4.2,5.3 -15.1,14 -17.5,14 -0.9,0 -1.4,-1.2 -1.4,-3.5 0,-1.9 -0.4,-3.5 -1,-3.5 -0.5,0 -1,1.3 -1,2.9 0,3.5 -0.9,6.1 -2.1,6.1 -0.5,0 -0.9,-2.5 -0.9,-5.6 0,-3.4 -0.4,-5.3 -1,-4.9 -0.5,0.3 -1,3.5 -1,7 0,5.4 -0.3,6.6 -2,7.5 -1.9,1 -2,0.8 -2,-8.5 0,-10.9 -1.9,-13.4 -2.1,-2.8 -0.1,3.8 0,7.2 0.1,7.8 0.1,0.5 -0.1,2.9 -0.5,5.2 l -0.6,4.3 -10.7,-0.7 c -11.5,-0.8 -18.3,-0.7 -30.3,0.2 l -7.7,0.6 -0.5,-4.3 c -0.2,-2.4 -0.8,-5.2 -1.1,-6.3 -0.6,-1.7 0.3,-2.5 6.3,-5.5 3.9,-1.9 7,-4.1 7.1,-4.8 0,-1.6 -1.6,-1.5 -4.3,0.3 -4.4,2.8 -14.9,4.8 -25.7,4.8 -11.7,0 -17.8,-1.3 -20.6,-4.4 -1.8,-2 -1.8,-2.1 0.9,-6.9 3.2,-5.7 3.3,-6 0.7,-9 -3.3,-3.8 -2.1,-4.5 8.1,-4.5 7.2,0 10.3,-0.4 13.2,-1.9 4.4,-2.2 7.7,-6 7.7,-9 0,-4.3 -1.1,-4.7 -13.1,-4.5 -12.6,0.2 -15.4,-0.3 -16.9,-3.2 -0.9,-1.6 -0.7,-1.9 0.8,-1.9 1,0 2.7,-0.9 3.8,-2.1 1.3,-1.4 2.5,-1.8 4.2,-1.4 4.1,1 2.2,-2.6 -2.7,-5.1 -4.6,-2.5 -8.1,-5.9 -8.1,-8 0,-1.5 9.1,-8.3 14.3,-10.7 2.2,-0.9 5.8,-2 8.1,-2.4 3.2,-0.5 5,-1.7 8.9,-5.9 3,-3.3 5.4,-5.1 6.3,-4.7 1,0.3 1.4,-0.2 1.4,-1.7 0,-2.2 0.1,-2.2 1.9,-0.6 1.2,1.1 2.1,1.4 2.6,0.7 0.3,-0.6 0.2,-1.1 -0.2,-1.1 -1.5,0 -4.3,-7.5 -4.3,-11.5 0,-2.1 0.9,-5.3 2.2,-7.2 2.1,-3.5 2.1,-3.5 0,-2.4 -2.7,1.4 -4.6,7.3 -3.9,12.3 0.4,2.7 0.2,3.8 -0.6,3.5 -1.9,-0.6 -2,-12 -0.2,-16.3 2,-4.8 1.2,-5.5 -1.5,-1.3 -1.8,2.8 -2.1,4.7 -1.8,11 0.2,6.1 0.1,7.3 -0.9,6 -1.9,-2.5 -1.5,-10 0.9,-17.6 3.2,-9.8 9.5,-16.2 20.1,-20.5 12.8,-5.1 17.6,-5.5 33.2,-2.4 z m -166.9,32.4 c 0.7,4.1 2.8,17.8 4.8,30.5 2,12.6 4,25.7 4.6,29 0.5,3.3 1.2,8.9 1.5,12.5 0.4,3.6 0.8,7.8 1.1,9.5 1.7,11.4 1.6,16 -0.2,17.7 -1.6,1.4 -27.4,8.5 -42.9,11.8 -2.2,0.4 -12.3,2.7 -22.5,5 -10.2,2.3 -23.7,5.2 -30,6.6 -6.3,1.3 -17,3.8 -23.6,5.4 -6.7,1.7 -14.3,3.5 -17,4 -8.3,1.7 -9.7,2.1 -15.9,3.6 -5.2,1.4 -20.9,4.4 -22.6,4.4 -0.4,0 -0.9,-1.5 -1.2,-3.3 -0.2,-1.7 -1.6,-6.9 -3,-11.4 -1.4,-4.5 -2.8,-10.5 -3.2,-13.5 -0.7,-5.7 -5.3,-26.6 -6.2,-28.1 -0.3,-0.4 -0.7,-2.3 -0.9,-4 -0.3,-1.8 -0.9,-4.1 -1.3,-5.2 -1.1,-2.4 -3.6,-15.1 -6,-30.3 -1.7,-10.4 -1.7,-11.4 -0.2,-11.9 0.9,-0.3 2.7,-0.9 4.1,-1.3 7.3,-2.5 32.7,-8.4 63.5,-14.9 8.3,-1.8 21.2,-4.5 28.8,-6.2 7.5,-1.6 22.2,-4.7 32.5,-6.9 10.3,-2.1 23.9,-5.1 30.2,-6.6 11.6,-2.7 20.2,-4.2 23,-4 1,0.1 1.8,2.3 2.6,7.6 z m 54.6,-5 c 18.3,1.6 37.8,3.2 43.2,3.5 5.5,0.3 10,0.6 10.2,0.7 0.1,0.2 0.5,2.3 0.9,4.7 l 0.7,4.4 -2.8,-0.8 c -1.6,-0.4 -5.6,-0.9 -8.9,-1.1 -5.6,-0.3 -27.4,-2.1 -51.5,-4.4 -13.6,-1.3 -15,-1.3 -15,0.4 0,1.7 4.4,2.6 12.5,2.6 3.4,0 10.8,0.4 16.6,1 19.6,1.7 36.4,3.1 43.3,3.4 5.9,0.3 7.1,0.7 8.7,2.7 1.8,2.4 1.8,2.4 -2.2,6.5 -2.3,2.4 -5.9,4.7 -8.2,5.4 -8,2.6 -17.2,7.5 -21.5,11.7 -4.3,4.1 -4.3,4.1 -2.8,7.1 0.9,1.7 3.2,4.3 5.1,6 3.9,3.1 3.6,4.1 -1.8,6.1 -1.5,0.6 -2.7,1.6 -2.7,2.4 0,2.3 3.2,5.9 6.6,7.3 19.63804,0.81831 23.79156,-0.44789 23.79156,3.15211 0,3.9 -6.84367,6.89014 -23.99156,6.24789 -5.89587,-0.22082 -8,4.3 -4.5,8.9 1.8,2.4 1.8,2.5 -0.5,6.9 -1.3,2.5 -2.4,5.4 -2.4,6.5 0,1.9 -0.5,2 -19.4,1.3 -21.3,-0.8 -22.2,-0.9 -23.2,-1.9 -1.1,-1.1 -8.4,-0.8 -8.4,0.2 0,1.8 1.7,2 22.6,3.1 29.2,1.5 28.7,1.5 33.9,4 4.1,2 6.3,2.3 18.1,2.4 10.4,0.1 13.5,0.4 13.9,1.5 0.5,1.2 -4.4,1.3 -33.2,0.6 -18.6,-0.5 -38.5,-0.9 -44.3,-1 -19.6,-0.3 -21,-0.4 -21.7,-2.1 -0.3,-0.8 0,-2.6 0.7,-3.9 1,-2 1.1,-3.5 0,-8.4 -1.6,-7.6 -1.6,-15.7 -0.2,-29.6 2.2,-20.8 4.2,-49.6 4.6,-65.8 0.1,-2.6 0.2,-4.7 0.3,-4.7 0.1,0 15.2,1.3 33.5,3 z m -142.4,10.2 c -0.2,1.4 -1.2,2.2 -2.8,2.5 l -2.5,0.4 2.5,-2.5 c 3.1,-3.1 3.2,-3.1 2.8,-0.4 z m -70.6,5.2 7.8,0.1 0,4 c 0,2.3 0.5,4.6 1.1,5.2 2.3,2.3 -6.4,2.4 -14.8,0.2 l -8.3,-2.2 0,-4.2 c 0,-5.1 0.5,-5.7 3.9,-4.3 1.4,0.6 6.1,1.1 10.3,1.2 z m 13.8,4.6 c 0,2.7 -0.4,5 -1,5 -0.5,0 -1,-2.3 -1,-5 0,-2.8 0.5,-5 1,-5 0.6,0 1,2.2 1,5 z m 22.5,-3.4 c 11,0.7 11,0.8 1.5,2.8 -4.7,1 -10.5,2.2 -13,2.8 -8.2,1.8 -8.4,1.8 -8.8,-3.1 l -0.4,-4.4 6.4,0.7 c 3.4,0.3 9.9,0.9 14.3,1.2 z m 133.8,95.6 c -0.3,1.8 -0.7,3.4 -0.8,3.6 -0.1,0.1 -7.6,0.1 -16.6,0 l -16.4,-0.3 14.5,-3.2 c 8,-1.7 15.7,-3.2 17.2,-3.2 2.6,-0.1 2.7,0.1 2.1,3.1 z m 53.7,3.4 c 0,1.4 -0.7,1.5 -3.7,1 -2.1,-0.3 -13.6,-0.6 -25.5,-0.6 -13.9,0 -21.8,-0.4 -21.8,-1 0,-0.6 9.2,-1 25.5,-1 22.9,0 25.5,0.2 25.5,1.6 z m 42.5,0 c 8.4,0.6 9,1 9.9,5.1 0.7,3.1 0.7,3.1 -4.5,4.2 -7.6,1.7 -19.6,5.9 -26.2,9.2 -4.8,2.5 -5.8,2.7 -6.3,1.4 -0.4,-1.1 -2,-1.5 -5.6,-1.5 -6.3,0 -6.1,2.3 0.3,3 4.3,0.5 4.3,0.5 2.2,2.1 -2.4,1.7 -7.7,8.7 -12.3,16.6 l -3.1,5.3 -5.4,0 c -8.4,0 -8.1,0.5 -7.4,-12.8 0.4,-6.4 1,-12.5 1.4,-13.5 1.6,-4 2.5,-1.1 2.5,8.4 0,6.4 0.4,9.8 1,9.4 0.6,-0.3 1,-4.2 1,-8.5 0,-10.3 0.3,-11 5.2,-11 3.9,0 4,0 3.3,3.2 -0.4,1.8 -0.8,4 -1.1,4.9 -0.5,1.9 4.1,6.5 5,5 0.4,-0.6 0.2,-1.9 -0.3,-2.9 -0.7,-1.3 -0.7,-5.2 0,-11.8 1,-10.1 1.7,-16.8 1.8,-17.1 0.2,-0.3 31.5,0.8 38.6,1.3 z m -93.8,2.9 c 29.3,0.2 42.8,0.6 43.6,1.4 0.6,0.6 2.6,1.1 4.5,1.1 3.2,0 3.3,0.1 3,3.7 l -0.3,3.8 -9.4,0.1 -9.4,0.2 -0.3,15.2 c -0.1,8.4 -0.6,15.6 -1.1,16.1 -0.4,0.4 -3.7,0.9 -7.3,1.1 l -6.5,0.3 -0.1,-3 c -0.2,-4.7 -3.1,-14.7 -4.8,-16.3 -1.3,-1.3 -1.8,-1.3 -4.1,0.2 -1.4,0.9 -3,2.7 -3.4,3.9 -0.5,1.2 -1.3,3.3 -1.8,4.7 l -1,2.5 -2.9,-3.2 c -1.6,-1.7 -3.9,-4.5 -5.2,-6.2 -2.8,-3.7 -5.1,-3.9 -8.9,-0.7 -2,1.7 -3.6,2.3 -5.6,1.9 -1.6,-0.3 -3.9,0.2 -6,1.4 -2.6,1.6 -4.5,1.9 -8.9,1.5 -5.3,-0.4 -6,-0.8 -10.8,-5.8 -4.6,-4.9 -5.3,-5.2 -7.7,-4.3 -1.5,0.5 -5.2,1 -8.2,1 -3.1,0.1 -6.1,0.5 -6.7,1 -0.9,0.7 -1.4,-1.2 -1.9,-7.1 -1.80282,-16.45916 -5.17979,-11.91301 -3,1 l 1.44507,8.56056 -9.14507,2.70282 c -5.1,1.2 -19.2,4.1662 -19.2,5.0662 0,1.8 13.31831,-1.89296 20.91831,-3.89296 l 6.68169,-1.43944 2.8,4.10282 2.7,3.3 -3.9,1.8 c -2.2,1 -5,1.8 -6.3,1.8 -2,0 -6.4,1.1 -10.5,2.8 -0.8,0.3 -2.4,0.6 -3.5,0.7 -1.1,0.1 -3.8,0.5 -6.1,0.9 -3.7,0.7 -4.3,0.4 -8.5,-3.3 l -4.4,-4 3.2,-0.1 c 2.9,0 23.30142,-5.49296 20.90142,-5.79296 -0.6,-0.1 -19.04086,4.29578 -19.64086,4.19578 -0.7,-0.1 -4.46901,0.36056 -5.16901,0.86056 -0.7,0.6 1.00845,-0.16338 0.70845,-0.46338 -0.2,-0.2 -0.9,-4.2 -1.4,-8.7 -0.5,-4.6 -1.4,-8.7 -2,-9.1 -1.1,-0.6 24.1,-6.8 51.9,-12.6 6.9,-1.5 13.9,-3 15.5,-3.4 1.7,-0.4 3.4,-0.5 3.9,-0.2 0.4,0.3 20,0.6 43.3,0.7 z m 77.9,22.6 c 8.1,2.1 15.4,13.1 15.4,23.4 0,11.6 -8.2,30.9 -18.7,44.3 l -5.7,7.2 -2,-4 c -3.7,-8.1 -17.3,-20.4 -26.3,-24 -1.8,-0.7 -3.3,-1.8 -3.3,-2.4 0,-0.7 1.6,-3.1 3.5,-5.3 1.9,-2.3 3.5,-4.6 3.5,-5.2 0,-0.6 0.5,-1.1 1,-1.1 0.6,0 1,-0.7 1,-1.5 0,-2.3 7.7,-17.3 11.7,-22.8 4,-5.5 9.7,-9.7 13.1,-9.7 1.3,0 4.3,0.5 6.8,1.1 z m -126.5,3.7 c 2.1,2.2 3.9,4.4 3.9,5 0,0.6 -2.3,4.4 -5.1,8.4 l -5.1,7.3 -6.7,0 -6.6,0 0.2,3.5 c 0.2,3.7 -2.4,17.5 -3.8,20 -0.6,1.1 -0.8,1.1 -0.9,0.2 0,-1.5 -8.5,-1 -18.9,1 -5.8,1.1 -7.3,0.4 -6.5,-2.8 0.5,-2 2,-2.4 22.7,-5.1 2.1,-0.3 7.67374,-0.98646 7.67374,-1.68646 0,-1.7 -1.321,-2.72708 -12.37374,-1.51354 -1.7,0.5 -6.9,1.3 -11.5,1.8 -8,0.9 -8.5,0.8 -11,-1.4 -1.4,-1.3 -6.2,-5.3 -10.6,-8.9 -14.7,-12.2 -17.6,-14.9 -16.8,-15.7 0.4,-0.4 4.2,-1.1 8.3,-1.5 7.5,-0.6 7.6,-0.6 8.7,1.9 1.7,3.6 11.7,10.2 14,9.2 2.2,-0.9 15.9,-4.2 22.5,-5.5 5.3,-1 8.8,-2.6 8.8,-4 0,-0.6 0.6,-1 1.4,-1 2.9,0 2.8,-2.2 -0.3,-5.4 -3.1,-3.2 -4.2,-7 -1.8,-6.1 0.9,0.4 7.6,-0.2 15,-1.4 0.5,0 2.6,1.6 4.8,3.7 z m 46.4,7.2 c 3.9,4.3 7.6,7.9 8.3,8 0.9,0 1.1,-1.4 0.6,-5.5 -0.5,-4.3 -0.3,-6 1.1,-8.1 2,-3.1 3.4,-2.2 4.1,2.7 0.3,1.9 0.9,4.8 1.3,6.5 0.6,2 0.4,4.4 -0.5,7 -3.5,10 -2.8,16.8 3.1,28.4 1.4,2.8 3.2,7.4 3.9,10.3 1.3,5 1.2,5.3 -1.1,8.1 -5.2,6.2 -8,14.6 -4.9,14.6 0.8,0 1.8,-1.9 2.5,-4.5 0.6,-2.5 2.6,-6.2 4.4,-8.3 1.9,-2 5.8,-7.1 8.9,-11.2 7.8,-10.6 7.5,-10.5 13.8,-7.2 6.2,3.1 20,16 20,18.7 0,0.9 -2.6,6.8 -5.7,12.9 -4.5,8.6 -7.3,12.6 -12.4,17.7 -3.7,3.6 -8.1,7.1 -9.8,7.8 -1.7,0.8 -3.1,1.9 -3.1,2.6 0,1.4 -7,3 -11.3,2.6 -3.6,-0.3 -13.8,-6.4 -18.1,-10.8 -6.3,-6.6 -8.6,-12.2 -11.7,-29.5 -3.1,-17.3 -5.2,-25.2 -7.1,-27.5 -1,-1.3 -1.3,-1.3 -1.8,0.2 -0.5,1.4 -1.5,0.9 -6.6,-2.8 -8.3,-6.1 -12,-12.7 -12.6,-22.6 -0.3,-4.2 -2.8,-7.3 -2.8,-3.4 0,1 -0.7,2.9 -1.6,4.1 -0.8,1.2 -1.2,2.2 -0.8,2.2 0.3,0 0.1,0.6 -0.5,1.4 -1.7,2 -6,2.9 -7.6,1.6 -1.1,-0.9 -0.7,-2.2 2.2,-6.8 7.2,-11.4 10.9,-12.6 19.4,-6.2 3,2.2 5.7,4 6.1,4 1.8,0 0.5,-1.7 -3.4,-4.4 -3.8,-2.8 -4,-3 -2.2,-4.3 4.4,-3.2 8.8,-2.9 14.6,1.1 3.4,2.3 4.8,2.4 4.8,0.4 0,-0.5 -1.7,-1.6 -3.7,-2.5 l -3.8,-1.5 2.4,-1.9 c 1.3,-1 2.8,-1.9 3.5,-1.9 0.6,0 4.3,3.6 8.1,8 z m -127,9 c 0.3,0.6 3.6,3.4 7.3,6.4 3.7,2.9 9.4,7.8 12.7,10.9 3.3,3.1 6.3,5.7 6.8,5.7 0.4,0 0.7,1.2 0.7,2.6 l 0,2.6 -3.7,-2.3 c -8,-4.7 -16,-10.4 -21.5,-15.2 -4.9,-4.2 -5.8,-5.5 -5.8,-8.3 0,-3.3 2.1,-4.7 3.5,-2.4 z m 159.3,3.2 c 13.6,-0.3 16.1,0.3 14.4,3.5 -1,1.8 -2,1.9 -15.4,1.5 -7.9,-0.2 -14.4,-0.5 -14.6,-0.7 -0.1,-0.1 0.3,-1.5 0.9,-3.1 0.6,-1.6 1.3,-2.4 1.5,-1.9 0.3,0.7 5,1 13.2,0.7 z m -81.4,6.9 c 3.1,1.9 4.2,5.4 2.4,7.6 -1.1,1.4 -1.3,1.1 7.1,12.8 5.1,7.1 6.4,8.9 10.9,15.7 2.1,3.3 3,3.8 6.2,3.8 2,0 5.8,0.3 8.4,0.6 4.1,0.6 4.6,0.9 4.6,3.3 l 0,2.6 -10.3,0.2 c -5.6,0.2 -10.7,0 -11.2,-0.5 -2.1,-1.4 -11.1,-14.8 -14,-20.7 -1.7,-3.2 -6.3,-10.6 -10.3,-16.4 -4.1,-5.8 -6.9,-10.7 -6.3,-11 1.8,-1.1 9.4,0.1 12.5,2 z m 12.5,-0.1 c 1.1,3.3 0.3,3.7 -4.7,2.4 l -2.3,-0.7 2.2,-2.3 c 2.9,-3.1 3.5,-3 4.8,0.6 z m 62.9,4.7 0.3,3.3 -5.5,0 -5.6,0 0,-3.6 0,-3.5 5.3,0.3 c 5.1,0.3 5.2,0.4 5.5,3.5 z m 10.8,2.5 c 1,3.9 0.9,5 -0.3,6.8 -1.1,1.5 -1.2,2.5 -0.5,3.2 0.8,0.8 0.2,1.9 -1.8,3.9 -3.2,3.3 -4,3.5 -4,1.4 0,-0.8 0.9,-1.9 2,-2.5 2.4,-1.3 2.6,-3 0.5,-3 -0.8,0 -1.5,-0.4 -1.5,-0.9 0,-0.5 -0.3,-1.6 -0.6,-2.5 -0.5,-1.2 0,-1.6 2.1,-1.6 3.8,0 3,-3.3 -1,-4 -2.4,-0.4 -3.1,-1.1 -3.3,-3.3 -0.3,-2.7 -0.2,-2.8 3.4,-2.5 3.6,0.3 3.8,0.5 5,5 z m 4.8,-2.6 c -1.3,1.9 -1.9,2.2 -2.5,1.2 -1.6,-2.4 -0.9,-3.8 1.6,-3.8 2.5,0 2.5,0 0.9,2.6 z m -99.5,7.2 c 4.4,6.8 4.6,6.5 -4.2,7.7 -4.4,0.6 -4.8,0.5 -4.4,-1.2 0.3,-1 1.1,-3.8 1.7,-6.3 1.5,-6.1 2,-7.4 2.5,-6.8 0.3,0.2 2.2,3.2 4.4,6.6 z m 24.6,-4.5 c 0,0.1 0.9,1.3 2,2.6 l 2,2.3 -5.5,-0.7 c -5.1,-0.6 -8,-2.4 -8,-4.8 0,-0.7 9.5,-0.1 9.5,0.6 z m 61.2,6.7 c 1.3,3.4 0.3,4.1 -4.1,2.9 -1.6,-0.5 -3.2,-0.6 -3.6,-0.4 -1.2,0.8 -3.3,-2.3 -2.6,-4 0.4,-1 1.9,-1.5 4.8,-1.5 3.9,0 4.5,0.3 5.5,3 z m -52.4,3.2 c 3.3,3.9 2.2,4.4 -6.7,3.2 -3.9,-0.6 -5,-1.2 -6.2,-3.7 l -1.6,-2.9 6.4,0.7 c 4.5,0.5 6.8,1.2 8.1,2.7 z m 7.3,3.4 c 1.7,1.4 1.7,1.5 0.1,1 -1,-0.3 -2.3,-0.6 -2.8,-0.6 -0.5,0 -0.9,-0.5 -0.9,-1 0,-1.4 1.3,-1.2 3.6,0.6 z m 44.1,0.4 c 2,0 2.6,5.8 0.9,8.5 -2.3,3.5 -3,3.1 -4.2,-1.8 -0.6,-2.3 -1.5,-5.1 -1.9,-6.1 -0.7,-1.7 -0.5,-1.8 1.6,-1.3 1.3,0.4 2.9,0.7 3.6,0.7 z m -48.5,4.4 c 1.9,2.8 0.8,3.6 -3.9,2.9 -5.1,-0.6 -7.3,-1.8 -7.3,-3.8 0,-1.5 10.1,-0.8 11.2,0.9 z m 8.8,1.6 c 0,2.3 -2.9,2.7 -4.8,0.8 -1.9,-1.9 -1.4,-2.8 1.8,-2.8 2.3,0 3,0.4 3,2 z m -4.2,6.7 c 2.1,2.8 1.4,3.4 -3.5,2.7 -5.6,-0.7 -6,-0.9 -7.4,-3.6 -1.1,-2 -0.9,-2 4.3,-1.4 3.2,0.4 5.8,1.3 6.6,2.3 z m 5.2,1.6 c 0,1.8 -0.2,1.9 -1,0.7 -1.3,-2 -1.3,-4.3 0,-3.5 0.6,0.3 1,1.6 1,2.8 z" />
  <path
     style="fill:#000000;stroke:none"
     d="m 181.09052,162.73532 c -1.9,3.7 -1.9,5 0,5 0.8,0 1.5,-0.6 1.5,-1.3 0,-0.7 0.7,-2.2 1.5,-3.3 1.2,-1.5 1.6,-1.6 2.3,-0.6 0.6,0.9 0.2,2.1 -1.4,3.7 -2.7,2.7 -3.2,6.5 -0.9,6.5 0.8,0 1.5,-0.6 1.5,-1.4 0,-1.8 2.7,-2.8 3.6,-1.4 0.4,0.6 -0.3,1.9 -1.5,2.9 -2.3,1.8 -2.1,3.9 0.3,3.9 1.3,0 5.6,-5.3 5.6,-7 0,-3.1 -6.3,-9.9 -9.2,-10 -1,0 -2.4,1.3 -3.3,3 z" />
  <path
     style="fill:#000000;stroke:none"
     d="m 260.59052,188.83532 c -5.3,2.8 -17.6,5.4 -18.2,3.8 -0.6,-1.5 -12.7,-3.3 -15.5,-2.3 -2.5,0.8 -2.8,1.5 -2.9,5.7 -0.1,2.6 0.4,5.1 1,5.6 2.2,1.8 12.1,4.1 17.5,4.1 7.2,0 20.9,-2.6 23.9,-4.6 3.3,-2.2 6.3,-7.5 5.6,-9.9 -0.8,-2.6 -3.4,-5.5 -4.8,-5.4 -0.6,0 -3.6,1.4 -6.6,3 z m -23.9,5.5 c 3.7,1.1 7.7,1.5 12.6,1.2 5.3,-0.4 7.8,-0.1 9.3,0.9 4,2.8 2.1,4.5 -6.5,5.9 -1.1,0.2 -5.4,0.5 -9.5,0.6 -5.8,0.1 -8.5,-0.3 -11.5,-1.8 -4.9,-2.4 -6.4,-4.6 -4.6,-6.8 1.7,-2 3.4,-2 10.2,0 z" />
  <path
     style="fill:#000000;stroke:none"
     d="m 359.89052,205.33532 c -0.9,2.5 1.3,4 2.6,1.6 1,-1.9 0.6,-3.2 -1.1,-3.2 -0.5,0 -1.1,0.7 -1.5,1.6 z" />
  <path
     style="fill:#000000;stroke:none"
     d="m 495.39052,335.93532 c -2.2,4.4 -3,11.7 -1.7,16.2 0.9,3.2 1.4,3.7 3.2,3.2 2.6,-0.6 8.5,5.3 9.4,9.5 0.3,1.6 1,3.2 1.4,3.5 1.7,1 0.9,-3.6 -1.7,-9.3 -2.2,-5.1 -2.5,-6.8 -2.1,-13.7 0.3,-6.2 0.8,-8.2 2.2,-9.2 1.1,-0.8 1.4,-1.4 0.8,-1.4 -0.5,0 -1.8,0.9 -2.9,2.1 -1.4,1.6 -1.8,3.6 -1.9,9 l 0,7 -3,-0.5 c -1.6,-0.4 -3.3,-1.2 -3.7,-1.9 -1.3,-1.8 -0.4,-9.9 1.5,-13.7 1.9,-3.8 2,-4 0.9,-4 -0.4,0 -1.5,1.5 -2.4,3.2 z" />
  <path
     style="fill:#000000;stroke:none"
     d="m 513.39052,338.43532 c -0.9,1 -2.1,3.5 -2.6,5.6 -1.4,5 -1,17.3 0.5,18.8 1.7,1.7 2.9,0.3 1.3,-1.6 -1.8,-2.2 -0.9,-17 1.3,-21.3 2,-3.6 1.8,-4.1 -0.5,-1.5 z" />
  <path
     style="fill:#000000;stroke:none"
     d="m 516.99052,351.23532 c -1.9,4.6 -2.9,13.3 -2,16.9 1.2,4.7 2.2,2.7 1.8,-3.3 -0.3,-3.6 0.2,-7.9 1.1,-11.2 1.9,-6.4 1.4,-7.8 -0.9,-2.4 z" />
  <path
     style="fill:#000000;stroke:none"
     d="m 524.79052,355.03532 c -2.2,2.6 -4.3,10.2 -5.7,20.2 -0.8,5.5 -2.1,13.2 -2.9,17.1 -2.1,10.5 -3.1,23.4 -1.8,23.4 0.8,0 1,2.5 0.6,7.7 -0.6,8.2 0.4,15.4 2.2,16 0.8,0.3 1.1,-3.1 1,-10.4 0,-5.9 0.3,-11.8 0.7,-13 0.7,-1.9 0.5,-2.2 -0.7,-1.7 -1.3,0.5 -1.6,-0.2 -1.6,-3.7 0.1,-8.8 2.9,-23.9 5.4,-29.5 3.1,-6.8 3.3,-8.3 0.5,-5.8 l -2.1,1.9 0.7,-5 c 0.5,-2.8 1.8,-7.9 3.1,-11.4 2.4,-6.6 2.6,-8.2 0.6,-5.8 z" />
  <path
     style="fill:#000000;stroke:none"
     d="m 487.09052,364.13532 c -2.8,2.8 -3.2,8.1 -0.6,8.1 3.2,0 7.2,-9.2 4.4,-10.2 -0.7,-0.3 -2.4,0.7 -3.8,2.1 z" />
  <path
     style="fill:#000000;stroke:none"
     d="m 524.79052,388.73532 c -4,10.1 -5.7,21 -3.2,21 0.6,0 1,-1.5 1,-3.4 0,-4.3 1,-7.2 2,-5.6 0.4,0.7 2,-0.4 4.3,-3 4.2,-4.6 7,-5.1 9.3,-1.5 2.8,4.3 1.4,11 -3.4,15.8 -4.7,4.6 -8.2,5.1 -11.2,1.6 -2.6,-3.2 -2.6,-0.5 0.1,3.2 3.3,4.7 7.6,3.6 14,-3.5 7.9,-8.6 5.4,-22.6 -3.9,-22.6 -2.8,0 -4.2,0.8 -6.8,3.7 l -3.3,3.8 1.5,-4.7 c 1.7,-5.1 1.4,-9.1 -0.4,-4.8 z" />
  <path
     style="fill:#000000;stroke:none"
     d="m 528.49052,399.43532 c -2.6,2.9 -5.3,8.2 -4.5,9 0.2,0.2 1.8,-0.3 3.5,-1.2 2.8,-1.4 3.2,-1.4 3.7,0 0.3,0.8 1.2,1.5 2,1.5 2.1,0 1.7,-3.8 -0.5,-5.2 -2.5,-1.5 -1,-3.8 1.9,-3.1 2.4,0.6 2.8,-2.2 0.4,-3.1 -2.8,-1.1 -4,-0.7 -6.5,2.1 z" />
  <path
     style="fill:#000000;stroke:none"
     d="m 520.09052,419.83532 c -1.2,1.8 -0.8,17.4 0.4,19.7 1.6,3 3.6,2.9 2.5,-0.1 -0.4,-1.2 -0.8,-6.4 -0.9,-11.5 0,-8.7 -0.5,-10.6 -2,-8.1 z" />
  <path
     style="fill:#000000;stroke:none"
     d="m 525.79052,435.73532 c 0,10.4 0.5,14 1.8,14 0.9,0 1.2,-16.9 0.4,-21.3 -1.1,-5.7 -2.1,-2.3 -2.2,7.3 z" />
  <path
     style="fill:#000000;stroke:none"
     d="m 533.09052,443.93532 c 0.4,5.7 1.1,11 1.6,11.8 0.4,0.8 0.9,1 0.9,0.5 0.2,-1.4 -0.2,-15.5 -0.5,-18.5 -0.4,-3.9 -0.4,-4 -1.6,-4 -0.8,0 -1,2.9 -0.4,10.2 z" />
  <path
     style="fill:#000000;stroke:none"
     d="m 354.09052,343.63532 c -0.3,0.6 -1.3,1 -2.3,1 -0.9,0 -4.8,0.9 -8.7,1.9 -3.8,1.1 -11.5,2.9 -17,4.1 -5.5,1.1 -15.8,3.4 -23,5.1 -17.4,4 -34.8,7.7 -72,14.9 -39.1,7.7 -39.4,7.8 -40.1,10.7 -0.3,1.2 -0.3,2.8 0.1,3.3 0.3,0.6 1,3.2 1.4,5.9 0.5,2.6 2.7,13.7 4.9,24.7 2.3,11 4.6,23.6 5.2,28 1.1,8.7 2.2,14.5 4.3,24.5 1.2,5.8 1.7,6.5 3.8,6.6 1.3,0.1 4,-0.4 5.9,-1.2 3.9,-1.5 24,-6.3 44,-10.4 3,-0.6 6.9,-1.5 8.5,-2 1.7,-0.4 7.8,-1.9 13.8,-3.1 5.9,-1.3 10.7,-2.7 10.7,-3.2 0,-0.5 -0.8,-0.6 -1.7,-0.3 -2.5,0.7 -10.3,2.6 -13.3,3.2 -1.4,0.3 -5.4,1.1 -9,1.9 -8.2,1.8 -24.8,5.2 -32,6.6 -3,0.6 -9.2,2 -13.8,3.1 -13.4,3.2 -12.9,3.2 -13.5,0 -0.2,-1.5 -1.6,-8.1 -3,-14.7 -1.4,-6.6 -2.7,-13.8 -3.1,-16 -0.3,-2.2 -1.7,-9.6 -3.1,-16.5 -1.4,-6.9 -3,-15.4 -3.5,-19 -0.6,-3.6 -1.4,-8.3 -2,-10.5 -1,-4.3 -1.3,-11.5 -0.5,-11.5 0.3,0 10.6,-2.3 23,-5 12.3,-2.8 29.5,-6.3 38.2,-7.9 25.4,-4.7 73.6,-15.2 86.8,-18.9 12.5,-3.5 11,-4.3 13,7.2 2.1,12.5 2.1,12.9 3.5,24.6 0.6,5.2 2,14.4 3,20.5 2.4,14.5 4.3,33.2 3.5,34.4 -0.7,1.3 -20.6,6.8 -30.5,8.6 -0.3,0 -4.5,1 -9.5,2.2 -4.9,1.2 -13.5,3.2 -19,4.3 -11.8,2.6 -12.9,2.9 -12.4,3.5 0.5,0.4 20.3,-3.5 37.4,-7.4 18.1,-4.2 32,-7.1 34,-7.1 4.7,-0.1 4.9,-0.9 3.1,-13.6 -2.1,-15 -3.5,-23.7 -4.6,-29.4 -0.5,-2.5 -1.4,-9.2 -2,-15 -0.7,-5.8 -2,-15.4 -3.1,-21.4 -1,-6 -1.9,-12.4 -1.9,-14.3 0,-3.2 -2.1,-4.6 -3.5,-2.4 z" />
  <path
     style="fill:#000000;stroke:none"
     d="m 395.79052,345.23532 c 0,1.6 0.2,2.2 0.5,1.2 0.2,-0.9 0.2,-2.3 0,-3 -0.3,-0.6 -0.5,0.1 -0.5,1.8 z" />
  <path
     style="fill:#000000;stroke:none"
     d="m 394.19052,356.93532 c -0.7,8.4 -1.4,21.3 -2.1,38.3 -0.4,7.7 -1,20.1 -1.6,27.5 -1.1,16.6 -1.1,16 0.1,16 0.6,0 1,-0.8 1,-1.8 0,-1 0.3,-2.1 0.6,-2.5 0.4,-0.3 0.8,-7.7 1,-16.4 0.2,-8.7 0.6,-19.2 0.8,-23.3 1,-15.1 1.9,-44 1.3,-44 -0.3,0 -0.8,2.8 -1.1,6.2 z" />
  <path
     style="fill:#000000;stroke:none"
     d="m 45.690528,186.03532 c -1.6,2 -1.8,7.2 -0.3,9 1.5,1.8 0.5,2.7 -2.9,2.7 -3.9,0 -7.5,1.5 -8.3,3.5 -1.1,3 2.3,8.1 7,10.6 l 4.4,2.4 -3.9,1.7 c -3.3,1.4 -4.2,2.4 -5.2,5.9 -1.3,4.1 -1.2,4.2 1.8,6.9 2.1,1.9 5,3.1 9.7,4 7,1.3 11.1,3.8 13.5,8.2 1.7,3.3 6.2,5.8 10.3,5.8 2.7,0 4.8,1.1 9.9,5.6 10.1,8.8 21.200002,14.6 34.199992,18 7,1.8 17.2,6.7 18.4,8.9 0.7,1.2 1.7,0.9 6.3,-1.7 5.2,-3 20.1,-8.8 22.7,-8.8 0.6,0 1.9,3.4 2.9,7.7 0.9,4.3 2.7,10.6 4,14 3.8,10.1 4.7,17.9 2.9,26.3 -0.8,3.9 -1.5,9.2 -1.5,11.6 0,2.5 -0.5,5.5 -1.1,6.6 -0.6,1.1 -1.3,5.3 -1.6,9.2 -0.2,3.9 -1.1,9.8 -1.9,13.2 -1.1,4.7 -1.3,10.6 -0.9,26.5 0.3,11.2 0.8,22.1 1,24.2 0.3,2.1 -0.3,7.2 -1.4,11.5 -1.1,4.2 -2.2,10.2 -2.6,13.2 -0.4,3 -0.9,6.3 -1,7.2 -1.33536,9.98284 0.3,9.46627 1.1,10.06627 1.8,1.6 2.1,-6.66627 2.8,-16.06627 0.3,-4 0.9,-8.7 1.5,-10.5 2.7,-8.9 2.8,-11.2 1.8,-31.6 -1,-19.9 -0.2,-34.9 1.8,-36.9 0.3,-0.3 1.4,-0.1 2.3,0.6 6.75071,3.88451 18.66479,6.46338 18.66479,6.46338 1.3,-2.36338 -4.4169,-4.00563 -10.86479,-5.36338 -5.8,-2.7 -6.4,-3.4 -6.6,-9.4 -0.4,-7.5 -0.3,-7.7 1.9,-6.5 7.71127,4.1662 7.89014,2.54507 1.5,-4.1 -3.7,-5.6 -4.1,-8.3 -2.3,-17 1.9,-9.5 1.9,-15.1 -0.1,-21.9 -1.1,-3.6 -3,-10.1 -4.3,-14.5 -1.3,-4.4 -2.7,-9.4 -3,-11.2 -0.6,-3.2 -0.6,-3.2 2.6,-2.5 5,1.1 12.5,0.8 13.9,-0.6 0.9,-0.9 -0.2,-1.2 -5.9,-1.2 -4,0 -7.4,-0.4 -7.8,-0.9 -0.7,-1.3 3.2,-3.4 5,-2.7 1.9,0.7 5.9,-5.9 5,-8.2 -0.6,-1.5 -0.9,-1.4 -3,1 -2.6,3 -10.5,7 -22.5,11.3 -4.1,1.5 -8.7,3.2 -10.2,3.7 -1.4,0.5 -3.6,2 -4.8,3.3 -2.3,2.4 -2.3,2.4 -4.9,0.6 -4.7,-3.3 -9.2,-5.2 -19.2,-8.2 -8.99999,-2.7 -16.799992,-5.9 -14.39999,-5.9 1.5,0 7.19999,-9 8.89999,-14 1.8,-5.5 3.5,-16 2.9,-17.7 -1.2,-3.1 9.8,-0.6 14.9,3.5 1.9,1.5 5.1,3.6 7,4.6 2,1.1 4.3,3.4 5.2,5.3 0.9,1.8 2,3.3 2.5,3.3 1.5,0 2.6,-2.3 1.3,-2.8 -0.7,-0.2 -1.2,-0.9 -1.2,-1.5 0,-0.7 -1.8,-2.5 -4,-4.1 -3.7,-2.8 -4.4,-4.6 -1.7,-4.6 0.7,0 3.9,-1.3 7.2,-3 3.3,-1.6 6.4,-3 6.8,-3 0.5,0 4.6,-2.4 9,-5.4 9.6,-6.3 22.2,-12.8 23.1,-11.9 0.3,0.4 0.6,0.1 0.6,-0.5 0,-3.6 -15.3,2.8 -27,11.3 -5.9,4.3 -15.9,9.2 -20.9,10.4 -3.4,0.7 -4.5,0.5 -8,-1.6 -2.3,-1.3 -5.4,-2.6 -6.9,-2.9 -14.49999,-2.3 -23.199992,-7 -28.299992,-15.5 -2.4,-3.8 -2.9,-6 -3.4,-13.8 -0.3,-5.1 -0.8,-9.7 -1,-10.2 -0.3,-0.4 -2.2,-1.1 -4.2,-1.5 -5.1,-1 -7.3,1.9 -7.3,9.2 l 0,5.4 -4.2,-4.2 c -7.9,-7.6 -24.7,-14 -27.7,-10.5 z m 13.6,3.9 c 4,1.6 7.6,4.1 11.5,8 l 5.7,5.8 -1.9,4.2 c -2.8,6.1 -2.6,11.9 0.5,16.8 1.6,2.5 3.3,4 4.5,4 2.7,0 2.5,-0.6 -1,-4.7 -3.9,-4.4 -4,-9.9 -0.4,-16.6 2,-3.9 2.5,-6 2.2,-10.7 -0.3,-7.1 1.5,-10 5.1,-8.1 1.8,1 2.1,2.1 2.1,8.6 0,5.9 0.6,8.9 3.1,15.1 3.1,7.8 3.1,7.8 1.5,12.9 -1.4,4.5 -5.1,11.1 -8.8,15.6 -0.8,1 -3.8,1.9 -8,2.3 -7.4,0.8 -7.7,0.7 -14,-7.6 -2.2,-2.9 -3.8,-3.9 -7.9,-4.7 -2.8,-0.6 -5.5,-0.9 -6,-0.5 -0.5,0.3 -0.9,0 -0.9,-0.5 0,-0.6 -0.8,-1.1 -1.8,-1.1 -2.6,0 -6.2,-2.9 -6.2,-5 0,-2.7 4.7,-6 8.7,-6 1.9,0 4.8,0.7 6.5,1.6 2.2,1.1 3.3,1.3 4.1,0.5 1.6,-1.6 -0.4,-3.2 -11,-8.6 -5.1,-2.5 -9.3,-5 -9.3,-5.5 0,-0.4 -0.2,-1.5 -0.5,-2.2 -0.7,-1.9 3.5,-3.8 8.1,-3.8 3.4,0 7.6,2.3 14.8,8.4 2.7,2.2 2.8,2.6 1.7,5.6 -1.4,4.3 -1.4,10.5 0.1,14.7 1.1,3 2.8,4.5 2.8,2.4 0,-1.5 5.9,-3.4 8.6,-2.7 1.9,0.5 2.5,0.3 2.1,-0.6 -0.3,-0.9 -2.3,-1.3 -6.2,-1.2 l -5.7,0.1 0.4,-7.3 c 0.4,-5.4 1.2,-8.8 3.2,-12.5 3.2,-6.1 2.5,-7.7 -1.3,-3.1 l -2.8,3.2 -1.9,-2.1 c -1,-1.2 -4.3,-3.7 -7.2,-5.5 -5.1,-3.3 -7.8,-7.3 -6.8,-10.1 0.8,-2 5.8,-1.6 12.3,0.9 z m 49.600002,36.7 c 4.19999,1.4 4.19999,1.5 2.19999,11.2 -1.9,9.1 -4.79999,15.5 -8.69999,19.6 l -3.100002,3.2 -3.9,-2 c -4.7,-2.4 -15.8,-10.9 -15.8,-12.1 0,-0.4 0.6,-0.8 1.4,-0.8 3.3,0 11.3,-11.2 14.1,-19.8 l 1.7,-5.3 4.100002,2.4 c 2.3,1.3 5.9,3 8,3.6 z m 65.19999,111.9 c -0.8,0.8 -2.5,-1 -1.9,-2 0.4,-0.6 0.9,-0.5 1.5,0.3 0.4,0.7 0.6,1.5 0.4,1.7 z" />
  <path
     style="fill:#000000;stroke:none"
     d="m 103.09053,229.73532 c 0.3,0.5 0.1,1 -0.6,1 -1,0 -1,0.3 -0.2,1.1 0.6,0.6 1.6,0.8 2.2,0.5 1.2,-0.8 0.4,-3.6 -1.1,-3.6 -0.5,0 -0.6,0.4 -0.3,1 z" />
  <path
     style="fill:#000000;stroke:none"
     d="m 497.43149,200.17518 c -13.01168,2.74921 -32.8716,9.27861 -43.31518,15.57889 -3.76654,2.29101 -9.07393,5.15478 -11.64203,6.41484 -7.19066,3.43652 -19.68871,17.18261 -21.05836,22.91014 -1.54086,7.44579 2.91051,16.15165 11.47082,22.22283 7.01945,4.92568 28.24903,12.71513 34.58366,12.71513 1.71206,0 13.81495,1.59219 15.52702,2.27951 3.25292,1.1455 10.05446,18.81201 11.35236,20.40152 3.53553,4.32991 3.76654,2.86377 5.30739,1.26007 0.85603,-0.91641 1.54086,-4.69658 1.54086,-8.47676 0,-9.2786 1.36965,-12.37147 4.96497,-11.45506 1.54087,0.4582 8.90273,1.3746 16.4358,1.94736 38.0078,3.32197 77.21403,-6.64394 93.64983,-23.59745 4.45135,-4.35293 5.82101,-12.14237 6.16342,-16.7244 -0.34241,-7.4458 -1.54086,-10.99686 -4.62257,-15.12069 -13.36434,-15.39885 -30.25716,-22.86099 -55.64203,-27.72127 -19.51751,-4.46748 -38.69261,-5.26933 -64.71596,-2.63466 z m 64.54476,5.38388 c 23.11283,4.92568 30.64591,7.56034 40.06226,14.43339 11.98444,8.8204 16.26459,15.46434 16.26459,25.0866 0,10.65321 -5.64981,18.21356 -18.31907,24.3993 -19.85992,9.85136 -39.54865,13.40242 -71.56421,12.60057 -7.41461,-0.34365 -18.40842,-1.0113 -22.77043,-2.12087 -7.68177,0.19456 -7.71155,-0.87232 -7.70429,6.81745 -1.02722,4.00928 -0.64026,8.20835 -1.15387,8.43745 -1.02724,0.68731 -3.00009,-6.49823 -8.13628,-13.25672 -2.72452,-5.01243 -1.11682,-3.20265 -11.16568,-4.95684 -17.12063,-1.3746 -44.08892,-11.53032 -49.22511,-20.46527 -3.08171,-5.38388 -2.39688,-13.17333 1.54086,-18.09901 11.12841,-13.63153 46.5681,-28.3513 46.5681,-28.3513 0,0 10.94873,-3.50233 15.92218,-4.6393 24.14009,-5.38388 43.48639,-5.38388 69.68095,0.11455 z" />
  <path
     style="fill:#000000;stroke:none"
     d="m 313.89052,232.93532 c 1.4,5.6 4.3,12.8 5,12.2 1.2,-1.2 0.8,-3.7 -1.5,-9.1 -2.3,-5.3 -4.5,-7.2 -3.5,-3.1 z" />
  <path
     style="fill:#000000;stroke:none"
     d="m 317.59052,231.33532 c 0,0.3 1.1,2.2 2.5,4.2 1.4,2 2.5,4.7 2.5,5.9 0,1.3 0.5,2.3 1,2.3 1.9,0 1,-5.4 -1.6,-9.2 -2.4,-3.3 -4.4,-4.9 -4.4,-3.2 z" />
  <path
     style="fill:#000000;stroke:none"
     d="m 1332.3466,269.73532 c -4.0582,0.4 -9.0181,0.5 -10.8218,0.3 -1.9539,-0.2 -3.4569,0.1 -3.4569,0.6 0,0.5 -1.3527,0.7 -3.0061,0.4 -1.8036,-0.3 -3.006,0 -3.006,0.6 0,0.7 -0.6012,1 -1.3527,0.6 -0.7515,-0.3 -1.8036,-0.1 -2.4049,0.5 -0.6012,0.6 -1.6533,0.8 -2.4048,0.5 -0.7515,-0.4 -1.3527,-0.1 -1.3527,0.6 0,0.7 -0.4509,0.9 -0.9018,0.6 -0.6012,-0.4 -3.457,0.6 -6.463,2.2 -3.006,1.5 -7.8157,3.6 -10.6714,4.6 -14.88,5.1 -27.8059,15.6 -33.3671,27.2 -4.8097,10.2 -4.6594,28.5 0.1503,36.7 4.8097,8.1 15.1805,15.6 27.8059,20.1 l 10.3708,3.7 -0.9018,6.4 c -0.6012,3.5 -1.8036,8.2 -2.7054,10.4 -1.5031,3.2 -1.5031,4.3 0,5.3 1.503,0.9 4.509,-0.7 14.7296,-7.8 7.2145,-5 13.6775,-8.8 14.5793,-8.7 0.9018,0.2 9.7696,0.6 19.6895,0.8 24.0484,0.6 36.3731,-1.3 54.8603,-8.3 2.1042,-0.7 7.3648,-2.6 11.8739,-4 4.509,-1.5 12.475,-5.4 17.7356,-8.6 12.1745,-7.6 14.7296,-12.4 14.7296,-28.2 0,-9.4 -0.6012,-12.1 -4.2085,-19 -7.3648,-14.3 -21.6435,-24.7 -45.2409,-33.1 -12.3247,-4.4 -35.7719,-6.3 -54.259,-4.4 z m 34.5695,3.1 c 10.5211,1.1 26.904,6.3 37.4252,11.6 8.8678,4.6 20.5913,15.7 23.898,22.7 5.4109,11.4 5.7115,22.8 1.0521,34.3 -2.7054,6.2 -14.7296,13.8 -32.1646,20.2 -23.2969,8.6 -32.315,10.2 -56.0627,10.2 -10.8218,-0.1 -21.4932,-0.5 -23.5974,-1.1 -3.3067,-0.8 -4.0582,-0.6 -5.5612,1.3 -2.2545,2.7 -16.3829,12.7 -18.0362,12.7 -0.7516,0 -0.9019,-0.6 -0.6013,-1.3 0.3006,-0.6 0.9019,-4.9 1.3528,-9.5 0.7515,-7.3 0.6012,-8.3 -1.8037,-8.8 -14.429,-2.8 -27.9561,-10.7 -34.5694,-20.2 -3.7576,-5.2 -4.0582,-6.8 -3.9079,-17.2 0,-17.9 6.3127,-29.3 20.5914,-37.5 8.7175,-5 22.395,-10.8 28.2568,-12 1.9539,-0.4 4.509,-1.2 5.5612,-1.8 3.4569,-1.8 17.2847,-4.8 25.8519,-5.5 7.8157,-0.7 11.5733,-0.5 32.315,1.9 z" />
  <path
     style="fill:#000000;stroke:none"
     d="m 239.09052,255.73532 c -1.1,1.7 -0.9,7 0.3,8.2 3.2,3.2 5.8,-3.6 2.8,-7.5 -1.5,-2 -2.2,-2.1 -3.1,-0.7 z" />
  <path
     style="fill:#000000;stroke:none"
     d="m 240.29052,283.33532 c -1.4,1.5 -0.7,7.5 0.9,8.1 2.2,0.8 4.6,-2.4 4.2,-5.7 -0.3,-2.5 -3.5,-4 -5.1,-2.4 z" />
  <path
     style="fill:#000000;stroke:none"
     d="m 240.79052,315.64243 c -1.7,1.7 -1.64142,3.89584 0.15858,5.39584 2.75,1.2 4.3272,-0.87868 3.8272,-4.47868 -0.7,-2.6 -1.98578,-2.91716 -3.98578,-0.91716 z" />
  <path
     style="fill:#000000;stroke:none"
     d="m 1240.5926,403.18118 c -3.4,0.4 -11.0956,1.32707 -11.3956,2.02707 -0.3,1 4.1978,1.52707 10.0978,1.52707 11.6,0 29.4602,5.3 43.6602,15.1 9.4,6.4 18.6,19.9 24.6,35.6 1.1,2.9 2.3,5.3 2.7,5.3 0.4,0 1.6,4.2 2.6,9.2 5.6,26.2 -1,51 -18.2,68.4 -6.3,6.3 -8.8,8.4 -14.3,11.3 -11.6,6.3 -18.3,10.6 -22.2,14.7 -2.3,2.4 -4.7,4.4 -5.2,4.4 -0.8,0 0,-9.9 1.1,-12.7 0.3,-0.7 -0.1,-1.3 -0.9,-1.3 -1.2,0 -3.8,9.8 -3.8,14.6 0,0.9 -1.5,4 -3.3,6.8 -4.3,6.7 -6.3,12.4 -4.8,13.9 1.5,1.5 2.4,0.3 4.6,-5.7 1,-2.9 2.5,-5.1 3.6,-5.3 1.1,-0.3 1.9,-1.3 1.9,-2.2 0,-3.1 14.1,-15.4 24,-21 18.8,-10.6 26.8,-18.6 35.5,-35.4 4,-7.9 4.9,-10.7 6.1,-20.7 0.4,-2.5 1,-5 1.6,-5.5 0.5,-0.6 8.8,-1 20.6,-1 l 19.7,0 6.5,8.7 c 5.6,7.6 6.5,8.4 6.8,6.3 0.2,-1.7 -1.4,-5 -5.3,-10.5 l -5.6,-8 -20.4,0 c -19.9,0 -20.4,0 -21.9,-2.2 -0.9,-1.2 -1.6,-3.9 -1.6,-5.9 0,-2.1 -0.9,-7.7 -2,-12.6 -1.1,-4.8 -2.3,-9.8 -2.5,-11.1 -0.3,-1.2 -1.2,-2.2 -1.9,-2.2 -0.8,0 -1.8,-1.5 -2.2,-3.2 -1.1,-5.4 -6.9,-17 -11.2,-22.6 -8.3,-11 -24.7,-22 -39.2,-26.2 -9.7,-2.8 -10.8624,-3.15414 -17.7624,-2.55414 z" />
  <path
     style="fill:#000000;stroke:none"
     d="m 1201.055,431.93532 c -1.9,1.5 -3.7,9.7 -3.7,17.2 0,5.6 1.1,8.3 2.9,7.1 0.9,-0.5 0.9,-1 0,-2.1 -0.8,-1 -1,-3.9 -0.6,-9.4 0.7,-8.6 1.9,-12 4.2,-12 0.8,0 1.5,-0.5 1.5,-1 0,-1.4 -2.3,-1.3 -4.3,0.2 z" />
  <path
     style="fill:#000000;stroke:none"
     d="m 1208.555,435.03532 c -1.4,1.6 -3.1,9.2 -3.2,13.4 0,5.8 2,13.3 3.7,13.3 1.1,0 1.4,-0.6 0.9,-2.3 -2,-7 -2.5,-12.1 -1.6,-16.9 0.6,-2.9 1.5,-5.7 2,-6.2 0.6,-0.6 1,-1.4 1,-1.8 0,-1.2 -1.6,-0.9 -2.8,0.5 z" />
  <path
     style="fill:#000000;stroke:none"
     d="m 1215.855,442.73532 c -2.2,3.6 -4.3,21.6 -3.1,26.5 1,4.1 2.7,2.9 2,-1.4 -0.7,-4.4 1.3,-21.1 2.7,-22.6 1.2,-1.2 1.2,-3.5 0,-3.5 -0.6,0 -1.3,0.5 -1.6,1 z" />
  <path
     style="fill:#000000;stroke:none"
     d="m 1223.355,448.73532 c -1.4,2.7 -4,17.3 -4,22.7 0,2.3 0.4,5.3 1,6.7 1.2,3.2 3.4,3.5 2.4,0.4 -1.6,-5.1 0.5,-28 2.7,-29.4 1.2,-0.7 1.2,-2.4 -0.1,-2.4 -0.5,0 -1.4,0.9 -2,2 z" />
  <path
     style="fill:#000000;stroke:none"
     d="m 164.89052,462.43532 c -5.1,12.6 -5.2,13 -0.8,14.9 l 3.7,1.5 -0.8,10.7 c -0.4,5.9 -0.8,11.7 -0.8,12.8 -0.1,1.4 -0.6,2 -1.4,1.6 -1,-0.3 -1.3,-3 -1.2,-10.6 0.1,-5.5 -0.54225,-10.87887 -0.54225,-12.17887 -0.74226,-10.38592 -3.31611,-11.25529 -1.86436,6.18818 -7.31935,1.45846 -9.07051,3.06093 -0.0335,1.87587 0.67596,16.15536 1.65146,15.29603 -3.13016,14.05805 -1.1,-0.3 -2.7297,-0.54323 -3.7297,-0.54323 -2.3,0 -5.07606,-5.37042 -5.84507,-8.71831 -2.03482,-4.50395 -8.79494,-20.34412 -4.85493,-22.28169 1.2,0 4.2,6.6 9.1,19.9 3,8.3 5.49143,13.35978 6.99143,11.95978 0.2,-0.3 -3.51953,-10.01288 -4.52444,-12.93962 5.52338,-2.69967 4.85963,-3.42577 -0.60082,-1.40513 -1.10563,-1.99953 -1.95991,-6.20864 -2.51794,-7.62027 -1.11607,-2.82325 -2.09822,-5.29476 -2.44822,-6.39476 -1.2,-3.7 -7.5,-11.5 -9.3,-11.5 -1.6,0 0.9435,20.9669 4.86482,28.1267 0,0 -2.52756,0.7168 -3.64766,1.15614 -0.7929,0.51716 -2.88787,1.89498 -3.48787,1.89498 -1,0.1 -0.82929,14.62218 0.0707,39.72218 0.5,11.8 0,11.1 10,14.9 4,1.5 9.4,2.5 16.2,3 11,0.8 16.3,-0.1 20.5,-3.3 1.4,-1.1 3.4,-2.5 4.3,-3 1.8,-1.1 1.9,-2.1 3,-32.3 0.5,-15.8 0.4,-16.4 -1.5,-16.9 -1.1,-0.3 -2,-0.9 -2,-1.3 0,-0.4 -1.1,-1.2 -2.5,-1.8 -3.1,-1.4 -3.1,-2.5 -0.2,-9.3 2.3,-5.7 2.6,-13.9 0.4,-13.9 -1.5,0 -10.7,10.4 -10.8,12.2 0,0.7 -1.3,4 -2.9,7.3 l -2.8,6 -0.1,-4 c -0.1,-2.9 -0.1881,-2.34877 -0.0978,-2.87778 6.70908,2.10676 7.54115,0.5992 0.39884,-1.50345 0.67622,-9.05718 1.39895,-32.51877 -0.50105,-32.91877 -1,-0.2 -2.4,2.1 -4.6,7.5 z m 4.3,10.5 c -1.2,2.1 -2.7,2.3 -4.3,0.7 -1.1,-1.1 -1,-1.6 3,-10.9 1,-2.3 0.67574,-2 1.27574,3 0.4,3.3 0.0586,5.77574 0.0243,7.2 z m 14.2,10.9 c -1.5,4.3 -8.7,18.2 -10.3,19.8 -2.2,2.2 -3,-1 -1.2,-4.6 0.8,-1.5 1.8,-4.3 2.2,-6 1.51267,-3.7912 2.95214,-8.41176 5.1,-11.3 2,-2.3 2.9,-2.8 3.9,-2 1,0.9 1.1,1.8 0.3,4.1 z m -36.9,12.9 c 1,3.1 0.4,3.9 -1.7,1.8 -1.4,-1.4 -1.6,-4.8 -0.3,-4.8 0.5,0 1.4,1.3 2,3 z m 37.9,-0.4 c 3,2 2.8,3 -0.9,4.9 -4.8,2.5 -6,1.7 -4.2,-2.8 1.7,-4.2 2,-4.3 5.1,-2.1 z m -41.7,4 c 6.1,7.4 31,9.7 42.3,3.9 l 4.9,-2.5 -0.8,16.7 c -0.4,9.3 -0.8,17.9 -1,19.3 -0.1,1.4 -0.3,3.3 -0.4,4.2 0,1 -0.6,1.8 -1.1,1.8 -0.6,0 -2.2,1.2 -3.5,2.7 -2.3,2.8 -2.5,2.8 -14.2,2.8 -9.1,0 -13.1,-0.4 -17.6,-2 -8.1,-2.7 -9.4,-4.2 -10.1,-11.7 -0.9,-9.2 -1.2,-36.8 -0.5,-36.8 0.4,0 1.2,0.7 2,1.6 z" />
  <path
     style="fill:#000000;stroke:none"
     d="m 1231.055,458.93532 c -2.2,3.5 -3.6,8.5 -4.6,16.7 -0.9,7.4 -0.7,10.1 1,10.1 0.5,0 0.9,-2.6 0.9,-5.8 0,-5.8 2.4,-17.2 3.9,-18.2 1.3,-0.9 2.1,-3.9 1.1,-4.5 -0.5,-0.3 -1.6,0.5 -2.3,1.7 z" />
  <path
     style="fill:#000000;stroke:none"
     d="m 1199.955,459.63532 c -0.4,0.5 -0.9,3 -1.2,5.5 -0.9,6 3.1,17.4 5.2,15.3 0.4,-0.4 -0.1,-3.2 -1.1,-6.3 -1.1,-3.5 -1.6,-7.2 -1.2,-10 0.4,-4.2 -0.5,-6.6 -1.7,-4.5 z" />
  <path
     style="fill:#000000;stroke:none"
     d="m 1236.355,466.73532 c -3.5,6.6 -7.5,28 -5.2,28 0.5,0 1.3,-2.4 1.7,-5.3 0.9,-7.2 3.4,-16.6 5.2,-20 1,-2 1.2,-3.2 0.5,-3.9 -0.7,-0.7 -1.4,-0.3 -2.2,1.2 z" />
  <path
     style="fill:#000000;stroke:none"
     d="m 1190.755,472.53532 c -2.9,0.4 -7.7,5.6 -7.2,7.8 0.6,3.1 3.6,2.8 6.7,-0.7 2.9,-3.2 4.5,-6.6 3.3,-7.2 -0.4,-0.2 -1.7,-0.1 -2.8,0.1 z" />
  <path
     style="fill:#000000;stroke:none"
     d="m 1238.555,485.93532 c -1.1,1.8 -3.3,6.9 -4.8,11.3 -2.4,6.8 -2.8,9.4 -2.7,17.4 0,5.1 0.5,9.6 1.1,10 0.5,0.3 1.7,2.1 2.6,3.8 0.9,1.8 2.3,3.3 3.1,3.3 1.8,0 1.8,-0.5 0.5,-3 -0.8,-1.5 -0.6,-2.1 0.9,-2.9 1.5,-0.8 2.5,-0.6 4.6,1.1 1.8,1.4 3,1.7 3.7,1 1.7,-1.7 -0.9,-5.1 -4.7,-5.8 -3.8,-0.7 -3.7,-2 0.1,-3.4 3.3,-1.3 5.1,-0.4 6.3,3.1 1.2,3.6 3.1,3.8 3.1,0.3 0,-1.5 -1.2,-3.8 -2.9,-5.4 -2.6,-2.6 -3.2,-2.8 -6.2,-2 -1.9,0.6 -4.8,2.7 -6.6,4.8 -4,4.6 -4.1,3.4 -0.3,-7 1.7,-4.5 3,-8.6 3,-9.1 0,-1.5 -2.6,1.7 -4.1,5 -1.1,2.7 -2.9,4.4 -2.9,2.9 0,-2.2 5.7,-19.1 7.6,-22.5 1.3,-2.4 2.4,-4.7 2.4,-5.2 0,-1.9 -1.9,-0.7 -3.8,2.3 z" />
  <path
     style="fill:#000000;stroke:none"
     d="m 602.59052,496.43532 c -3.6,0.2 -12.3,1 -19.5,1.8 -7.1,0.8 -19.5,1.5 -27.5,1.6 -8,0.1 -16,0.6 -17.8,1 -3.7,0.8 -6.5,4 -7,7.9 -1.4,12.2 -7.5,32.6 -14.8,49.7 -0.8,1.7 -1.4,3.4 -1.4,3.7 0,1.1 -7.3,19.1 -10.1,25 -3.4,6.9 -3.3,6.6 -1.6,6.6 1.8,0 4.2,-5.2 11.5,-24 3.3,-8.5 8.4,-21.4 11.2,-28.7 3.6,-9.3 5.6,-16.2 6.7,-23.5 0.8,-5.7 1.9,-10.7 2.4,-11.2 1.2,-1.4 6.2,2.3 15,10.9 5.8,5.8 7.9,8.5 7.9,10.4 0,5.6 -4.5,24.6 -8.9,37.6 -3.9,11.6 -5.3,15.1 -8.5,21.7 -2.8,5.8 -3.1,6.8 -1.6,6.8 1.1,0 2.8,-2.6 5.2,-8.3 5.6,-12.7 13.8,-38.1 15.3,-47.2 0.4,-2.2 1.1,-5.7 1.6,-7.7 l 1,-3.8 25,0.1 c 13.7,0 25.4,-0.3 25.9,-0.6 0.6,-0.3 1,-1.2 1,-1.8 0,-0.9 -6.4,-1.1 -26.1,-0.9 l -26,0.3 -7.7,-7.3 c -4.2,-4.1 -9.1,-8.6 -10.9,-10 -3.1,-2.5 -3.1,-2.6 -1,-3.2 1.2,-0.3 8.2,-0.6 15.5,-0.6 7.3,0 17.4,-0.4 22.5,-1 5.1,-0.5 14.7,-1.1 21.3,-1.4 13.2,-0.6 15.4,-1.1 15.4,-3.2 0,-1 -1.1,-1.3 -3.7,-1.2 -2.1,0.1 -6.7,0.3 -10.3,0.5 z" />
  <path
     style="fill:#000000;stroke:none"
     d="m 1239.255,511.73532 c -3.9,3.8 -2.8,5.9 1.3,2.5 3.4,-2.8 6.6,-3.2 10.7,-1 9.9,5.1 1.4,21.4 -12.8,24.6 -3.8,0.9 -8.2,-0.8 -10.1,-3.8 -0.9,-1.6 -1,-1.5 -0.8,0.7 0.2,1.6 1.6,3.3 4,4.9 3.3,2.1 3.6,2.6 2.7,4.8 -0.5,1.4 -1.2,6.6 -1.6,11.6 -0.5,7.5 -0.4,8.9 0.8,8.5 0.9,-0.3 1.6,-2.9 2.1,-7.9 0.4,-4.1 1.3,-9.3 1.9,-11.6 1,-3.6 1.5,-4.2 4.6,-4.8 4.2,-0.8 12.4,-8 14.7,-13 2,-4.1 2,-10.4 0.1,-12.9 -4.7,-6.2 -12.8,-7.4 -17.6,-2.6 z" />
  <path
     style="fill:#000000;stroke:none"
     d="m 832.65502,539.63532 c -4.5,12.6 -7.37279,24.99325 -8.57279,35.39325 l -5.74437,0.99167 c -2.5,-4.7 -5.58284,-12.68492 -6.58284,-15.88492 -0.9,-3.2 -2.2,-6.3 -2.8,-6.9 -0.7,-0.5 -2.4,-2.7 -4,-4.8 -1.5,-2 -3.4,-3.7 -4.3,-3.7 -1.4,0 -1.5,1.1 -0.8,8.7 0.4,4.9 0.8,10.4 0.9,12.3 0.1,1.9 0.5,4.2 0.8,5 0.4,0.8 1.6,4 2.7,7.1 l 1.15147,3.83223 -3.68787,2.30711 c -3.4,1.3 -3.1636,2.86066 -3.1636,6.16066 0,2.4 0.5,3.6 1.4,3.6 0.8,0 1.4,-1 1.4,-2.5 0,-1.4 0.2,-2.5 0.5,-2.5 0.2,0 6.2,0.9 13.2,2.1 16.7,2.8 29.7,2.3 39.7,-1.5 l 6.8,-2.6 -0.4,3.5 c -0.3,2.9 -0.1,3.5 1.4,3.5 1.4,0 1.8,-0.8 1.8,-4.2 0,-3.5 -0.5,-4.6 -3.2,-6.8 l -3.2,-2.7 3.6,-5.9 c 4.9,-8.1 11.5,-27.8 9.7,-29 -0.6,-0.3 -3.1,1.4 -5.7,3.8 -2.6,2.4 -6.2,5.7 -8,7.3 -2.8,2.5 -4.8,5.7 -13.3,21 l -8.54645,-1.58909 c -0.15372,-1.36724 5.89437,-30.0602 5.76655,-31.19375 -0.0121,-3.45787 0.48284,-14.0402 -0.48579,-18.42427 -4.61927,4.62724 -6.92947,9.67843 -8.33431,13.60711 z m 4.6,14.98873 -5.97721,-1.31569 c 0.25,-2.35 6.07721,-19.87304 7.97721,-21.97304 1.5,-1.7 0.86863,6.21838 0.76863,6.81838 -0.73418,4.4375 -2.76863,16.47035 -2.76863,16.47035 z m -28,6.81127 c 1.6,3.7 4.4,10.2 6.4,14.3 5.3,11.3 5.4,12 2,12 -5.3,0 -6.8,-1 -9.1,-6.3 -1.2,-2.9 -2.7,-6.8 -3.3,-8.7 -1.3,-4.3 -2.65,-16.25 -2.05,-16.95 0.9,-0.9 3.25,-1.05 6.05,5.65 z m 56.3,-1.6 c -0.6,2.6 -6.2,12.9 -10.1,18.9 -2.3,3.4 -4.1,6.6 -4.1,7.1 0,1.2 -4.4,2.9 -7.6,2.9 -1.3,0 -2.4,-0.2 -2.4,-0.4 0,-0.1 1.1,-2.3 2.4,-4.7 11,-20.4 16.3,-27.3 20,-25.9 1.1,0.4 2,1.4 1.8,2.1 z m -29.16863,-1.8169 c 0,0 -2.43137,11.5169 -3.03137,16.7169 -0.5,5.2 -1.45355,13.79411 -1.55355,14.79411 -0.4,2.9 1.3636,3.1 2.0636,0.3 0.4,-1.4 1.59792,-12.15096 1.59792,-12.15096 l 7.88112,1.62929 -5.16691,10.31248 -3.92218,0.11508 c 0,0 -10.1,-0.9 -9.4,-2 0.3,-0.5 1.2,-5.5 2,-11.2 2.4,-16.3 4.04289,-19.61691 4.04289,-19.61691 z" />
  <path
     style="fill:#000000;stroke:none"
     d="m 1239.955,550.83532 c -0.8,4 -0.8,13.3 0,15.3 1.4,3.7 2.4,1.1 2.1,-5.7 -0.1,-3.9 0.2,-8.4 0.6,-10 0.5,-2 0.4,-2.7 -0.7,-2.7 -0.7,0 -1.6,1.4 -2,3.1 z" />
  <path
     style="fill:#000000;stroke:none"
     d="m 1245.555,557.93532 c -2,11.8 -2.2,13.3 -1.2,14.8 1.3,2.1 2,0.9 2.4,-4.9 0.3,-2.9 0.8,-7.7 1.2,-10.7 0.9,-7.6 -1.1,-7 -2.4,0.8 z" />
</svg>
